<?xml version="1.0" standalone="no"?>
<!DOCTYPE svg PUBLIC "-//W3C//DTD SVG 20010904//EN" "http://www.w3.org/TR/2001/REC-SVG-20010904/DTD/svg10.dtd">
<svg version="1.0" xmlns="http://www.w3.org/2000/svg" width="2048.000000pt" height="2048.000000pt"
    viewBox="0 0 2048.000000 2048.000000" preserveAspectRatio="xMidYMid meet">
    <metadata>
        Created by potrace 1.16, written by Peter Selinger 2001-2019
    </metadata>
    <g transform="translate(0.000000,2048.000000) scale(0.100000,-0.100000)" fill="currentColor" stroke="none">
        <path d="M9798 20475 c-2 -1 -64 -6 -138 -10 -74 -4 -151 -8 -170 -10 -19 -2
-73 -6 -120 -10 -47 -3 -98 -8 -115 -9 -16 -2 -61 -6 -100 -10 -79 -8 -148
-16 -185 -21 -14 -2 -52 -7 -85 -11 -33 -3 -68 -8 -79 -10 -10 -2 -44 -6 -75
-10 -31 -3 -65 -8 -76 -10 -10 -2 -35 -6 -55 -9 -20 -3 -47 -7 -60 -10 -13 -3
-42 -7 -65 -10 -22 -3 -47 -8 -55 -10 -8 -2 -28 -7 -45 -10 -16 -2 -41 -7 -55
-10 -14 -3 -36 -7 -50 -10 -14 -3 -36 -7 -50 -10 -14 -3 -36 -7 -50 -10 -14
-3 -36 -7 -50 -10 -14 -3 -36 -7 -50 -10 -14 -3 -36 -7 -50 -10 -14 -3 -34 -8
-45 -10 -38 -9 -65 -15 -87 -21 -13 -3 -34 -7 -48 -10 -14 -3 -43 -10 -65 -16
-22 -6 -44 -12 -50 -13 -5 -2 -35 -10 -65 -19 -30 -10 -64 -19 -75 -22 -11 -2
-67 -18 -125 -34 -58 -17 -115 -33 -126 -36 -12 -2 -53 -14 -90 -26 -38 -12
-71 -22 -74 -23 -3 0 -22 -7 -42 -14 -21 -7 -43 -9 -50 -5 -7 4 -10 4 -6 -1 6
-6 -176 -77 -232 -90 -8 -1 -33 -10 -55 -18 -216 -83 -273 -105 -290 -112 -11
-4 -24 -9 -30 -11 -33 -8 -103 -37 -124 -50 -17 -12 -21 -12 -16 -3 5 8 -1 6
-12 -4 -11 -9 -23 -14 -26 -10 -4 3 -7 0 -7 -7 0 -7 -3 -11 -6 -7 -4 3 -33 -7
-65 -23 -32 -17 -63 -30 -69 -30 -5 0 -37 -13 -70 -29 -33 -16 -60 -28 -60
-26 0 2 -51 -22 -112 -53 -62 -31 -115 -57 -118 -57 -3 -1 -61 -30 -130 -65
-69 -36 -131 -66 -137 -68 -7 -2 -13 -8 -13 -13 0 -5 -3 -8 -7 -7 -5 1 -45
-17 -89 -40 -45 -22 -85 -38 -89 -34 -5 4 -5 2 -2 -4 8 -13 -20 -27 -34 -18
-5 3 -8 0 -7 -8 2 -7 -5 -12 -14 -12 -10 1 -16 -3 -15 -10 1 -6 -4 -10 -10 -9
-7 2 -13 -2 -13 -9 0 -6 -2 -9 -5 -6 -3 3 -41 -15 -84 -41 -43 -25 -92 -53
-107 -62 -71 -41 -430 -266 -449 -282 -5 -4 -22 -16 -36 -25 -55 -36 -115 -77
-151 -105 -21 -16 -43 -25 -49 -21 -8 4 -9 3 -5 -4 3 -6 -3 -16 -15 -22 -11
-7 -52 -36 -91 -66 -39 -30 -73 -54 -77 -54 -3 0 -19 -11 -34 -25 -15 -14 -27
-23 -27 -20 0 3 -6 0 -14 -7 -8 -7 -11 -17 -8 -23 3 -5 2 -7 -2 -3 -10 9 -231
-160 -258 -197 -4 -5 -8 -7 -8 -2 0 4 -8 -1 -18 -10 -10 -10 -38 -34 -62 -53
-25 -19 -65 -54 -91 -77 -25 -24 -49 -41 -52 -38 -4 3 -5 2 -2 -2 6 -8 -37
-39 -48 -35 -5 1 -6 -2 -2 -8 3 -5 3 -10 -2 -10 -4 0 -31 -21 -59 -48 -28 -26
-73 -66 -100 -90 -27 -24 -98 -91 -158 -150 -60 -59 -114 -106 -120 -104 -6 2
-8 1 -4 -3 4 -4 -48 -61 -115 -126 -67 -66 -121 -124 -119 -129 1 -6 -2 -9 -6
-8 -4 2 -34 -25 -66 -59 -32 -35 -63 -60 -69 -56 -6 3 -7 1 -3 -5 7 -12 -71
-99 -86 -94 -5 1 -7 -2 -4 -7 4 -5 -13 -29 -36 -54 -24 -25 -56 -62 -73 -83
-47 -59 -71 -84 -78 -79 -4 3 -5 2 -2 -1 2 -4 -24 -41 -58 -83 -80 -98 -83
-101 -92 -93 -4 4 -5 2 -3 -4 3 -12 -1 -18 -137 -194 -49 -64 -99 -129 -110
-144 -11 -16 -50 -69 -88 -118 -37 -49 -82 -112 -101 -139 -18 -27 -36 -46
-40 -41 -4 4 -7 2 -6 -3 5 -21 0 -36 -10 -30 -6 4 -9 2 -8 -3 2 -5 -44 -80
-102 -168 -57 -87 -125 -194 -150 -237 -26 -42 -50 -74 -55 -70 -4 5 -5 3 -1
-4 4 -7 -6 -32 -21 -55 -15 -24 -55 -91 -89 -150 -33 -59 -65 -104 -69 -100
-5 4 -6 3 -3 -3 3 -5 -12 -41 -33 -80 -33 -59 -331 -656 -359 -720 -36 -82
-56 -129 -113 -265 -35 -85 -76 -189 -91 -230 -16 -41 -33 -86 -39 -100 -12
-27 -14 -35 -16 -51 0 -5 -5 -7 -11 -4 -5 3 -7 0 -4 -8 3 -8 -8 -47 -24 -88
-43 -108 -174 -513 -173 -534 0 -2 -6 -23 -14 -45 -8 -22 -12 -40 -8 -40 3 0
0 -7 -7 -15 -7 -8 -10 -15 -6 -15 3 0 1 -11 -4 -25 -5 -14 -12 -36 -14 -48 -3
-12 -17 -65 -31 -117 -15 -52 -28 -103 -31 -112 -2 -10 -6 -27 -9 -38 -3 -11
-7 -29 -10 -40 -3 -11 -7 -29 -10 -41 -2 -11 -6 -28 -9 -37 -3 -9 -7 -28 -10
-42 -2 -14 -11 -54 -20 -90 -8 -36 -17 -78 -20 -95 -3 -16 -8 -41 -11 -55 -6
-29 -13 -63 -20 -105 -4 -16 -12 -61 -20 -100 -8 -38 -16 -88 -20 -110 -3 -22
-7 -47 -10 -55 -2 -8 -6 -35 -9 -60 -3 -25 -8 -54 -10 -66 -2 -11 -7 -45 -10
-75 -3 -30 -8 -63 -10 -74 -2 -11 -7 -47 -10 -80 -4 -33 -9 -71 -11 -85 -6
-39 -14 -109 -20 -180 -3 -36 -8 -83 -10 -105 -2 -22 -7 -85 -10 -140 -4 -55
-8 -116 -10 -135 -27 -291 -27 -1119 0 -1400 2 -19 6 -75 10 -125 7 -96 10
-138 19 -225 14 -133 17 -155 41 -350 16 -129 19 -146 35 -240 16 -95 20 -114
25 -140 20 -104 25 -128 29 -150 9 -54 59 -282 93 -425 19 -82 36 -154 37
-160 1 -5 4 -15 8 -20 3 -6 10 -28 14 -50 10 -51 11 -55 14 -57 1 -2 3 -10 5
-18 2 -8 7 -26 10 -40 3 -14 8 -35 11 -47 2 -12 8 -33 13 -45 5 -13 9 -26 9
-31 2 -29 142 -462 207 -642 127 -348 198 -527 303 -755 52 -114 262 -538 302
-610 57 -101 89 -159 145 -260 173 -313 575 -905 842 -1240 46 -58 202 -250
219 -270 12 -14 41 -47 64 -75 228 -267 684 -729 929 -942 24 -21 57 -50 72
-64 15 -14 49 -44 75 -65 25 -21 58 -49 73 -62 14 -13 58 -49 96 -80 39 -31
75 -61 81 -67 11 -10 25 -21 149 -120 161 -129 214 -167 227 -159 7 4 8 3 4
-4 -3 -6 2 -16 13 -21 11 -6 25 -17 33 -24 7 -7 29 -24 48 -37 19 -13 40 -29
47 -35 36 -30 43 -35 51 -35 4 0 17 -8 28 -18 11 -11 24 -21 29 -23 6 -2 96
-61 200 -130 185 -122 444 -281 535 -330 25 -13 52 -29 60 -36 25 -20 461
-243 655 -335 161 -77 212 -98 219 -91 3 4 6 2 6 -3 0 -6 17 -16 38 -24 20 -7
64 -25 97 -41 61 -28 162 -69 180 -74 6 -1 23 -7 38 -14 16 -6 33 -8 39 -5 6
4 8 2 4 -4 -6 -9 80 -46 95 -39 3 1 13 -4 22 -12 10 -7 17 -10 17 -6 0 4 7 2
15 -5 8 -7 52 -26 98 -42 100 -36 318 -109 332 -112 6 -2 62 -19 125 -39 101
-31 184 -56 215 -63 6 -1 51 -13 100 -27 50 -14 106 -29 125 -33 43 -10 42 -9
60 -17 8 -4 26 -8 40 -11 14 -2 60 -14 103 -25 42 -12 93 -24 113 -27 20 -3
45 -8 55 -10 52 -11 67 -14 99 -20 38 -7 57 -11 93 -19 12 -3 36 -8 52 -10 17
-3 37 -8 45 -10 19 -5 60 -13 135 -26 76 -13 104 -18 135 -24 13 -2 40 -7 60
-10 20 -3 45 -7 55 -9 11 -2 49 -7 85 -11 36 -4 67 -8 70 -10 3 -1 37 -6 75
-10 82 -8 148 -15 190 -20 91 -10 157 -16 215 -20 36 -2 65 -4 65 -5 0 -1 23
-3 50 -5 28 -2 83 -6 123 -9 257 -20 969 -28 1142 -12 41 3 122 8 180 11 102
4 184 10 265 20 22 2 80 7 129 11 49 3 98 8 110 10 43 8 89 14 231 29 133 14
168 18 225 30 13 2 42 7 65 11 22 3 60 10 85 16 25 5 54 11 65 13 11 2 34 7
50 10 17 3 46 8 65 11 19 3 42 7 50 9 8 2 29 7 45 10 31 5 57 11 98 21 12 3
31 7 42 9 11 2 31 6 45 9 14 4 36 8 50 11 14 3 36 7 50 10 14 3 34 8 45 10 39
9 65 15 85 20 11 3 29 7 40 10 11 3 28 7 38 9 9 2 31 9 47 16 17 6 31 11 33
11 1 -1 3 -1 5 0 7 2 35 9 58 13 15 4 57 15 94 27 38 11 75 22 84 24 9 2 31 8
49 14 17 5 32 7 32 4 0 -3 7 0 15 7 8 7 15 9 15 5 0 -4 7 -2 15 5 8 7 15 10
15 7 0 -3 37 7 83 22 45 15 84 28 87 29 3 0 18 5 33 11 16 6 33 11 38 11 6 0
7 4 4 10 -3 5 0 7 9 4 8 -3 23 -1 34 5 10 5 30 12 43 15 13 3 47 14 76 24 28
11 54 17 57 14 3 -3 6 0 6 6 0 7 3 11 8 11 4 -1 9 0 12 1 3 1 12 3 20 5 8 2
33 11 55 20 22 10 40 17 40 15 0 -1 13 5 29 14 16 8 33 13 38 10 4 -3 8 0 8 5
0 6 3 10 8 10 4 -1 10 0 15 1 4 1 10 3 15 4 4 1 17 7 28 14 12 6 24 8 28 5 3
-3 6 -1 6 5 0 7 3 11 8 10 13 -4 140 47 307 123 28 12 52 23 55 24 3 0 14 6
25 12 11 6 25 12 30 13 19 4 51 18 140 61 50 24 92 44 95 44 3 1 30 14 60 30
30 16 57 30 60 31 3 1 15 5 28 9 12 4 22 12 22 17 0 5 4 7 9 3 5 -3 12 -1 16
5 4 6 11 8 16 5 5 -4 9 -2 9 3 0 7 40 32 60 37 3 0 33 15 67 33 35 18 66 32
69 31 4 0 10 3 13 8 3 5 42 29 86 53 44 23 82 47 83 52 2 4 8 6 13 2 5 -3 9 0
9 6 0 6 5 8 10 5 6 -3 10 -1 10 5 0 6 5 8 10 5 6 -3 10 -1 10 5 0 6 5 8 10 5
6 -3 10 -2 10 3 0 6 14 15 30 21 17 5 30 15 30 21 0 6 5 8 10 5 6 -3 10 -1 10
6 0 7 3 10 6 6 4 -3 32 11 64 33 32 22 60 36 64 33 3 -4 6 -2 6 4 0 11 50 38
65 34 6 -2 6 1 2 5 -4 4 16 22 45 38 30 17 74 45 99 63 26 18 50 29 54 25 5
-4 5 -2 2 4 -4 7 6 17 23 24 17 7 30 17 30 22 0 5 5 6 10 3 6 -3 10 -2 10 4 0
5 8 12 18 15 10 4 27 14 38 24 11 9 33 25 49 34 17 10 29 23 27 30 -2 7 0 10
4 6 9 -10 88 39 179 110 6 4 24 19 42 32 18 13 30 27 27 31 -3 5 2 6 10 3 10
-4 16 -1 16 7 0 7 3 10 6 6 4 -3 12 -1 19 6 6 7 24 21 39 32 16 11 33 25 40
30 6 6 27 22 48 37 20 15 42 34 50 41 7 7 38 31 69 54 31 23 78 60 105 83 27
22 69 58 94 78 37 31 101 87 146 127 15 14 133 117 158 138 102 87 504 480
646 633 100 108 220 242 243 271 12 15 31 37 42 49 31 32 76 84 125 144 25 30
52 64 62 75 50 60 104 130 113 144 6 9 12 18 15 21 3 3 25 32 50 65 25 33 50
66 57 75 132 170 365 512 533 785 90 145 104 168 158 264 14 25 38 68 55 95
59 101 106 194 100 200 -4 3 -1 6 5 6 6 0 12 6 14 13 2 6 34 73 73 147 38 74
70 137 70 140 1 3 29 61 62 130 64 131 203 450 234 535 10 28 45 122 79 210
34 88 72 194 85 235 13 41 37 113 53 160 16 47 30 90 32 95 1 6 4 15 6 20 3
13 57 196 74 255 8 25 14 50 16 55 1 6 8 30 15 55 7 25 13 48 15 53 1 4 2 8 4
10 2 2 6 17 14 55 3 13 8 32 11 42 3 10 7 27 9 37 2 10 12 47 21 83 9 36 19
76 21 90 3 14 7 33 10 42 3 10 7 30 10 45 3 16 9 44 14 63 5 19 12 51 15 70 3
19 8 42 10 50 2 8 7 29 10 45 2 17 7 41 10 55 3 14 7 36 10 50 3 14 7 36 10
50 3 14 7 39 10 55 2 17 7 42 10 58 10 53 15 82 20 117 3 19 7 46 10 60 3 14
8 45 11 70 3 25 7 56 10 70 2 14 6 50 10 80 3 30 8 64 10 75 3 11 7 45 10 75
3 30 7 66 9 80 1 14 5 54 9 90 4 36 9 85 11 110 7 62 15 168 20 237 16 244 20
366 19 718 -1 359 -4 497 -18 690 -3 33 -7 98 -11 145 -3 47 -8 101 -10 120
-3 19 -7 64 -10 100 -3 36 -8 76 -10 90 -2 14 -6 54 -10 90 -4 36 -8 76 -10
90 -2 14 -7 49 -10 79 -4 30 -8 62 -10 71 -2 9 -6 41 -10 70 -4 29 -9 62 -11
74 -3 12 -7 35 -9 51 -3 17 -7 41 -10 55 -3 14 -8 41 -11 60 -5 29 -21 111
-40 195 -2 11 -7 34 -9 50 -6 34 -34 169 -41 200 -3 11 -7 34 -10 50 -3 17 -7
37 -10 45 -3 8 -8 26 -10 39 -3 13 -12 51 -20 85 -8 34 -17 72 -20 85 -3 14
-7 28 -10 33 -3 5 -8 21 -10 36 -8 45 -91 340 -130 457 -19 61 -37 117 -39
125 -5 23 -125 368 -141 406 -8 19 -14 36 -14 39 0 3 -7 19 -15 35 -8 16 -15
32 -15 35 -1 13 -133 334 -153 370 -6 11 -12 22 -12 25 -1 3 -7 17 -13 33 -7
15 -17 39 -24 55 -6 15 -11 30 -10 35 1 4 -3 7 -10 7 -6 0 -9 3 -6 6 3 3 -10
38 -30 77 -20 40 -36 74 -37 77 -1 8 -135 273 -199 395 -55 104 -94 176 -139
255 -11 19 -33 58 -49 87 -15 28 -61 105 -101 170 -40 65 -80 129 -88 142 -8
14 -18 30 -22 35 -4 6 -26 40 -49 76 -23 36 -57 90 -77 120 -46 70 -222 321
-235 336 -6 6 -18 22 -26 34 -37 56 -293 387 -345 446 -5 6 -23 28 -40 49 -16
21 -34 43 -40 49 -24 26 -163 185 -228 260 -70 81 -220 238 -387 405 -107 108
-194 200 -192 204 1 5 -1 6 -6 3 -4 -2 -37 23 -73 57 -66 63 -75 71 -209 187
-41 36 -80 70 -86 76 -6 5 -35 30 -64 55 -29 24 -60 51 -70 59 -9 8 -32 26
-50 40 -18 14 -42 33 -54 43 -11 10 -36 31 -55 45 -18 15 -41 34 -51 43 -11 8
-31 24 -46 35 -14 10 -50 37 -78 60 -149 118 -585 421 -771 535 -22 13 -48 29
-57 34 -10 6 -66 39 -125 75 -60 36 -117 70 -128 76 -11 6 -44 25 -73 42 -29
18 -57 32 -62 32 -6 0 -10 4 -10 9 0 5 -8 11 -17 14 -10 4 -47 23 -83 43 -77
43 -438 224 -574 289 -126 58 -395 170 -616 255 -96 37 -184 71 -195 75 -11 5
-23 9 -27 10 -5 2 -10 4 -13 5 -3 1 -8 3 -12 4 -29 6 -120 40 -130 49 -7 5
-13 7 -13 3 0 -3 -17 1 -37 10 -21 8 -49 18 -63 20 -13 3 -30 10 -37 16 -7 6
-13 8 -13 4 0 -3 -12 -1 -27 5 -16 6 -136 42 -268 80 -132 38 -247 72 -255 75
-8 4 -22 8 -30 9 -8 2 -25 6 -37 9 -13 3 -32 8 -43 11 -11 3 -29 7 -40 10 -48
12 -66 16 -90 21 -14 3 -45 10 -70 15 -25 6 -55 13 -66 15 -12 2 -66 13 -120
25 -55 11 -110 22 -124 25 -14 2 -36 7 -50 9 -91 19 -112 22 -164 30 -21 4
-48 8 -59 11 -12 2 -39 6 -62 9 -22 3 -51 8 -65 10 -14 2 -45 7 -70 10 -25 4
-56 8 -70 10 -14 2 -52 7 -85 10 -33 4 -71 8 -85 10 -14 2 -56 7 -95 11 -38 3
-79 8 -90 10 -11 2 -51 6 -90 10 -38 3 -86 7 -105 9 -19 2 -82 6 -140 10 -58
4 -127 9 -155 12 -56 5 -1021 13 -1027 8z m797 -979 c94 -4 195 -9 225 -11 30
-2 93 -6 141 -10 47 -3 96 -7 110 -9 13 -3 62 -7 109 -11 47 -3 99 -8 115 -10
17 -3 55 -7 85 -10 30 -3 66 -7 80 -9 14 -3 48 -7 75 -11 54 -7 106 -14 144
-20 13 -2 45 -7 70 -11 65 -9 80 -12 89 -17 4 -3 27 -8 52 -11 45 -6 73 -11
120 -21 14 -3 36 -7 50 -10 14 -2 45 -9 70 -15 25 -5 56 -12 70 -14 14 -3 34
-7 45 -10 90 -20 170 -39 184 -41 9 -2 16 -4 16 -5 0 -1 7 -3 15 -5 9 -1 67
-17 130 -35 63 -18 121 -33 128 -33 6 0 12 -5 12 -10 0 -6 3 -8 6 -4 3 3 17 2
30 -3 14 -6 35 -12 47 -14 12 -3 63 -17 112 -31 50 -15 95 -28 100 -30 6 -1
17 -5 25 -8 27 -10 155 -55 165 -57 6 -1 20 -6 33 -11 13 -5 27 -9 32 -9 5 0
21 -5 37 -11 36 -15 215 -79 228 -82 6 -1 12 -5 15 -8 3 -3 55 -25 115 -49 61
-24 170 -70 244 -102 73 -32 138 -55 144 -51 5 3 7 2 4 -4 -7 -11 118 -69 141
-66 7 0 11 -2 8 -5 -3 -3 74 -46 172 -95 411 -207 770 -423 1172 -705 74 -53
137 -98 140 -101 3 -4 16 -14 31 -23 21 -13 225 -171 279 -215 8 -7 58 -47
110 -89 79 -63 187 -155 236 -199 156 -141 234 -216 414 -395 119 -118 261
-264 315 -324 104 -113 110 -120 162 -183 17 -21 40 -47 50 -58 10 -11 36 -42
58 -70 22 -27 43 -52 46 -55 44 -37 443 -583 576 -788 42 -64 90 -139 108
-167 42 -64 115 -186 115 -191 0 -2 15 -27 33 -56 19 -29 58 -98 87 -153 29
-55 56 -104 60 -110 32 -43 234 -446 268 -535 6 -14 31 -70 57 -125 25 -55 50
-109 55 -120 38 -85 50 -115 50 -119 0 -3 11 -29 24 -58 58 -129 145 -376 264
-748 27 -87 107 -364 117 -407 2 -10 13 -54 24 -98 10 -44 22 -93 25 -110 8
-49 16 -89 21 -105 2 -8 7 -28 10 -45 5 -34 9 -50 23 -115 6 -25 14 -65 17
-90 4 -24 8 -47 10 -50 1 -3 6 -27 9 -54 4 -27 9 -52 10 -55 2 -3 7 -26 10
-51 3 -25 8 -54 10 -65 6 -32 16 -97 21 -135 3 -19 7 -44 9 -55 2 -11 7 -49
11 -85 4 -36 8 -72 10 -80 3 -17 13 -109 20 -185 2 -27 7 -86 11 -130 8 -94 9
-107 20 -290 10 -170 11 -816 0 -975 -10 -157 -19 -271 -31 -395 -3 -27 -7
-72 -10 -99 -2 -26 -7 -65 -10 -85 -2 -20 -7 -61 -10 -91 -2 -30 -6 -64 -9
-75 -2 -11 -7 -45 -10 -76 -4 -31 -9 -67 -11 -80 -7 -35 -23 -128 -29 -169 -3
-19 -8 -46 -11 -60 -3 -14 -8 -38 -11 -54 -3 -17 -21 -107 -40 -200 -34 -166
-38 -184 -49 -236 -13 -60 -15 -71 -20 -90 -3 -11 -8 -30 -11 -43 -6 -27 -8
-31 -23 -87 -8 -25 -14 -49 -15 -55 -1 -5 -10 -37 -20 -70 -10 -33 -19 -67
-21 -75 -2 -8 -8 -27 -14 -42 -6 -16 -8 -28 -5 -28 4 0 1 -7 -6 -15 -7 -8 -10
-15 -6 -15 3 0 1 -12 -5 -27 -6 -16 -12 -35 -14 -43 -11 -51 -192 -569 -239
-685 -152 -373 -318 -729 -491 -1050 -45 -84 -257 -444 -295 -500 -15 -22 -56
-85 -92 -140 -36 -55 -100 -149 -141 -210 -42 -60 -83 -118 -89 -129 -7 -10
-17 -24 -23 -30 -8 -9 -177 -230 -240 -315 -25 -33 -203 -249 -230 -278 -11
-12 -31 -37 -45 -54 -28 -36 -115 -134 -171 -191 -20 -21 -33 -41 -30 -44 3
-4 -2 -4 -12 -1 -10 4 -16 3 -12 -2 6 -11 -360 -383 -369 -374 -3 3 -6 1 -6
-5 0 -15 -59 -68 -71 -65 -5 2 -8 0 -6 -5 4 -12 -43 -53 -54 -47 -5 4 -8 3 -7
-2 4 -11 -67 -82 -147 -148 -33 -28 -67 -57 -75 -66 -70 -74 -618 -489 -855
-647 -22 -15 -42 -29 -45 -32 -3 -3 -57 -38 -120 -78 -63 -40 -122 -77 -130
-82 -8 -5 -62 -37 -120 -71 -58 -34 -108 -67 -112 -73 -4 -6 -8 -8 -8 -3 0 4
-17 -3 -37 -16 -21 -13 -87 -50 -148 -82 -60 -32 -134 -71 -163 -87 -29 -15
-58 -25 -64 -22 -7 4 -8 2 -4 -4 4 -7 1 -12 -8 -12 -8 0 -22 -8 -32 -17 -10
-10 -19 -17 -21 -16 -1 2 -63 -26 -135 -61 -175 -83 -226 -106 -238 -106 -5 0
-10 -5 -10 -12 0 -6 -3 -9 -6 -5 -4 3 -21 -1 -38 -10 -17 -10 -34 -18 -38 -19
-5 -1 -11 -3 -15 -4 -5 -1 -11 -2 -15 -1 -5 0 -8 -4 -8 -10 0 -5 -4 -7 -10 -4
-5 3 -10 2 -10 -3 0 -5 -6 -9 -12 -9 -12 -1 -129 -48 -193 -78 -16 -7 -42 -17
-57 -20 -16 -4 -28 -11 -28 -17 0 -5 -4 -7 -8 -4 -5 3 -32 -6 -60 -19 -29 -13
-52 -23 -52 -21 0 2 -48 -14 -107 -36 -60 -21 -115 -40 -123 -43 -8 -2 -42
-13 -75 -25 -33 -12 -69 -23 -81 -26 -12 -2 -41 -11 -65 -20 -24 -8 -53 -18
-64 -20 -11 -3 -27 -7 -35 -9 -8 -2 -15 -4 -15 -5 0 -1 -7 -3 -15 -5 -8 -2
-55 -16 -105 -30 -49 -15 -98 -29 -107 -31 -10 -2 -28 -6 -39 -9 -12 -2 -36
-9 -54 -15 -18 -6 -42 -13 -54 -15 -11 -3 -30 -7 -41 -10 -11 -3 -29 -7 -40
-10 -11 -3 -29 -7 -40 -10 -43 -11 -84 -19 -145 -31 -26 -4 -85 -17 -137 -30
-27 -6 -49 -11 -88 -18 -64 -11 -85 -15 -130 -25 -47 -11 -107 -21 -150 -26
-14 -1 -38 -5 -55 -8 -40 -8 -135 -21 -235 -32 -30 -4 -68 -9 -85 -12 -16 -2
-50 -6 -75 -8 -25 -3 -72 -7 -105 -11 -33 -3 -80 -7 -105 -9 -25 -2 -81 -6
-125 -10 -152 -13 -524 -28 -700 -28 -118 0 -524 12 -590 18 -22 2 -78 6 -125
9 -47 4 -103 8 -125 11 -22 2 -75 7 -117 10 -43 3 -86 8 -95 9 -17 4 -84 11
-182 21 -48 5 -104 13 -141 20 -14 3 -45 8 -70 11 -25 3 -56 8 -70 10 -14 3
-41 7 -60 9 -19 3 -46 8 -60 12 -39 10 -42 10 -85 17 -23 4 -52 9 -65 12 -14
3 -34 7 -45 9 -11 2 -45 8 -75 14 -30 6 -68 14 -85 17 -16 3 -48 10 -70 16
-22 5 -51 12 -65 15 -14 2 -43 9 -65 15 -22 6 -49 13 -60 15 -11 2 -38 9 -60
15 -22 6 -43 12 -47 14 -5 1 -9 2 -10 4 -2 1 -10 3 -18 5 -8 2 -26 7 -40 10
-14 3 -34 8 -46 10 -12 3 -40 11 -63 19 -22 9 -41 13 -41 10 0 -3 -6 -2 -12 3
-7 4 -18 8 -25 9 -7 1 -45 12 -85 25 -40 13 -79 24 -86 25 -37 6 -278 90 -284
99 -4 6 -8 7 -8 3 0 -4 -30 4 -67 18 -38 14 -84 30 -103 36 -19 5 -39 14 -45
18 -5 4 -28 13 -50 20 -22 7 -46 18 -54 24 -8 6 -16 10 -18 8 -2 -1 -17 5 -33
13 -16 8 -33 15 -37 15 -11 -1 -167 62 -173 69 -3 3 -14 8 -25 9 -11 2 -23 8
-26 14 -3 5 -8 8 -10 6 -5 -3 -90 33 -99 42 -3 3 -10 6 -17 7 -31 6 -472 223
-601 297 -35 20 -66 36 -68 36 -2 0 -33 18 -69 40 -36 22 -67 40 -70 40 -2 0
-24 14 -48 30 -25 17 -47 30 -51 30 -9 0 -385 238 -483 306 -51 36 -95 63 -97
62 -3 -2 -11 4 -18 13 -7 8 -62 51 -123 94 -101 73 -193 142 -205 156 -3 3
-41 32 -85 66 -44 33 -90 69 -102 79 -12 11 -33 28 -48 38 -14 11 -34 27 -44
35 -10 9 -43 37 -72 62 -79 69 -139 121 -169 149 -15 14 -69 63 -120 110 -121
110 -341 330 -457 455 -147 160 -224 245 -262 291 -13 16 -38 45 -55 64 -17
20 -42 50 -56 69 -14 18 -34 43 -45 55 -25 26 -172 215 -251 321 -32 44 -61
82 -64 85 -36 34 -312 447 -420 630 -5 8 -32 52 -60 97 -27 46 -50 85 -50 87
0 2 -17 33 -38 67 -165 273 -393 750 -562 1174 -37 94 -71 179 -75 190 -5 11
-9 22 -10 25 -5 20 -39 117 -44 125 -3 6 -6 15 -7 20 -1 6 -27 84 -57 175 -48
142 -73 223 -83 265 -1 6 -12 44 -24 85 -11 41 -23 86 -26 99 -3 14 -7 28 -10
33 -3 4 -7 16 -9 25 -2 10 -13 54 -24 98 -12 44 -23 87 -26 95 -7 29 -57 255
-61 280 -2 14 -9 45 -14 70 -6 25 -13 55 -15 67 -3 13 -7 33 -10 45 -3 13 -8
43 -11 68 -3 25 -8 53 -10 63 -2 9 -6 25 -8 36 -2 10 -7 36 -11 57 -3 22 -7
50 -10 64 -2 14 -6 45 -9 70 -3 25 -8 54 -10 65 -2 11 -7 49 -11 85 -3 36 -8
76 -10 90 -2 14 -7 59 -10 100 -4 41 -9 93 -11 115 -27 243 -38 511 -38 905 1
386 8 567 39 880 2 25 7 76 10 113 4 37 8 76 10 85 1 9 6 46 10 82 4 36 9 74
11 85 7 35 13 69 19 115 3 25 8 56 10 70 13 69 17 97 20 120 5 39 16 103 20
120 2 8 7 29 10 45 2 17 7 41 10 55 3 14 7 37 10 53 3 15 12 60 21 100 8 39
18 83 20 97 3 14 10 43 15 65 5 22 12 51 15 65 2 14 9 39 15 56 9 30 14 48 25
103 3 14 7 28 10 33 3 4 7 16 9 26 1 9 8 35 14 57 6 22 11 45 12 50 1 6 6 21
11 35 5 14 12 35 14 47 2 12 47 153 100 314 99 302 229 638 331 859 32 68 55
121 54 127 0 1 54 108 119 237 65 129 116 237 114 240 -2 3 -1 4 3 1 3 -3 11
5 18 18 71 132 85 158 175 312 29 50 61 105 71 122 10 18 40 66 67 106 50 76
66 106 63 120 -1 5 2 6 7 3 5 -3 18 10 28 29 10 19 22 35 26 35 5 0 8 4 8 10
0 5 27 47 60 93 33 47 60 89 60 95 0 6 3 12 8 14 4 2 34 40 67 86 58 80 201
268 231 305 8 10 12 23 8 29 -4 6 -3 8 3 5 6 -4 19 5 29 20 9 15 26 37 37 48
62 65 137 166 131 177 -4 6 -3 8 3 5 6 -4 30 17 54 45 24 28 49 56 54 62 6 6
28 31 49 56 22 25 76 85 120 134 45 48 80 92 78 97 -1 5 2 8 7 7 4 -2 60 49
123 112 108 109 384 373 438 420 43 38 113 96 178 150 34 29 59 57 55 62 -4 7
-1 8 7 3 8 -5 17 -2 24 6 6 8 49 45 96 81 47 36 95 76 108 88 12 11 22 18 22
14 0 -4 8 2 17 12 10 11 48 41 85 67 36 26 74 54 82 63 9 8 16 13 16 9 0 -3
12 5 27 19 15 14 30 23 35 20 4 -3 8 -1 8 5 0 5 13 18 29 27 17 10 28 21 25
26 -3 4 2 5 10 2 9 -3 16 -2 16 3 0 5 15 17 32 28 18 10 57 36 86 57 28 21 52
36 52 33 0 -3 8 2 18 11 40 36 197 132 206 127 6 -3 8 -3 4 2 -7 7 399 257
442 273 8 3 27 14 43 24 15 11 27 16 27 11 0 -4 4 -3 8 3 4 6 50 33 102 59 52
27 106 56 120 66 14 9 28 17 32 18 4 1 73 33 154 72 144 69 214 101 224 103 3
1 39 17 80 36 41 19 78 34 82 33 5 -2 8 2 8 7 0 5 3 9 8 8 4 -1 17 3 30 10 12
7 22 10 22 6 0 -3 7 -1 15 6 8 7 15 10 15 6 0 -4 11 1 25 10 13 8 30 12 36 8
8 -4 9 -3 5 4 -4 7 -2 12 4 12 5 0 74 25 152 56 78 30 150 56 160 57 10 1 18
6 18 11 0 5 3 6 7 3 3 -4 11 -2 18 3 6 5 22 12 36 14 13 3 25 5 27 5 1 1 4 1
7 1 3 0 19 7 35 15 17 9 30 13 30 10 0 -3 13 1 29 9 15 8 39 17 52 19 14 3 41
12 62 20 20 9 37 14 37 12 0 -2 32 7 70 20 39 13 70 22 70 20 0 -2 15 2 34 10
18 8 44 16 57 19 47 10 64 14 89 24 14 5 30 10 35 11 6 1 28 6 50 12 39 11 51
14 96 24 12 2 36 9 54 15 31 10 54 16 105 26 14 3 32 7 40 9 8 2 31 7 50 10
19 3 42 8 50 10 8 2 30 7 49 10 19 3 37 8 41 10 4 2 22 7 41 10 19 3 45 7 59
10 14 3 39 7 55 10 17 3 40 7 53 10 51 12 61 14 98 20 22 3 53 8 69 10 17 3
48 8 70 11 22 4 51 8 65 9 14 2 39 5 55 8 17 4 55 9 85 12 30 2 64 7 75 9 12
2 52 7 90 11 39 3 88 8 110 10 111 11 159 15 255 21 58 3 125 8 150 9 25 2
112 7 195 10 82 3 150 7 151 8 5 4 386 -1 549 -7z" />
        <path d="M9996 19323 c-1 -2 -63 -5 -137 -8 -129 -5 -168 -7 -343 -20 -203
-15 -195 -15 -316 -30 -30 -3 -73 -8 -95 -10 -22 -2 -60 -7 -85 -11 -25 -4
-64 -8 -87 -8 -22 -1 -39 -4 -37 -8 3 -4 -4 -6 -13 -6 -21 1 -105 -12 -114
-18 -8 -4 -92 -15 -136 -18 -17 0 -29 -4 -27 -8 3 -4 -4 -7 -13 -7 -10 1 -29
-2 -43 -5 -42 -10 -73 -16 -110 -22 -19 -3 -38 -8 -41 -10 -4 -2 -24 -6 -45
-10 -22 -3 -59 -10 -84 -16 -25 -5 -56 -12 -70 -14 -14 -3 -33 -7 -42 -10 -9
-3 -26 -7 -37 -9 -12 -3 -31 -7 -43 -11 -13 -3 -32 -7 -43 -9 -11 -3 -51 -14
-90 -25 -38 -11 -81 -23 -94 -26 -13 -3 -31 -9 -40 -13 -9 -5 -24 -7 -33 -6
-10 2 -18 0 -18 -4 0 -4 -6 -8 -12 -9 -25 -1 -71 -13 -87 -21 -9 -5 -19 -9
-24 -9 -18 0 -243 -75 -254 -84 -7 -6 -13 -8 -13 -4 0 3 -44 -10 -97 -30 -54
-20 -105 -37 -113 -39 -8 -2 -36 -12 -63 -24 -26 -11 -50 -20 -52 -20 -10 1
-170 -63 -181 -72 -6 -5 -14 -6 -17 -2 -4 3 -7 0 -7 -7 0 -7 -3 -11 -6 -8 -3
4 -22 -1 -42 -9 -56 -23 -430 -193 -506 -229 -27 -13 -53 -21 -59 -17 -6 3 -7
1 -3 -5 4 -7 1 -12 -8 -12 -9 0 -16 -4 -16 -10 0 -5 -3 -9 -7 -8 -15 3 -93
-34 -93 -45 0 -6 -3 -8 -6 -4 -3 3 -24 -5 -45 -19 -21 -13 -43 -24 -49 -24 -5
0 -10 -5 -10 -11 0 -5 -4 -7 -10 -4 -5 3 -10 1 -10 -5 0 -6 -4 -8 -10 -5 -5 3
-10 2 -10 -3 0 -5 -8 -12 -17 -15 -30 -10 -261 -141 -285 -162 -13 -10 -25
-19 -28 -18 -12 1 -69 -31 -65 -37 2 -4 -2 -7 -9 -7 -14 0 -127 -71 -138 -88
-4 -5 -8 -6 -8 -1 0 5 -6 3 -13 -3 -8 -6 -18 -7 -22 -3 -5 4 -5 2 -2 -4 4 -7
1 -14 -7 -17 -19 -7 -187 -118 -204 -134 -6 -6 -21 -15 -32 -18 -11 -4 -17
-11 -14 -17 4 -6 2 -8 -4 -4 -6 3 -16 1 -24 -6 -7 -7 -39 -30 -71 -52 -31 -21
-72 -52 -90 -67 -17 -16 -38 -27 -45 -24 -7 3 -11 1 -8 -4 7 -11 -139 -112
-149 -103 -5 4 -5 2 -2 -4 3 -6 -21 -30 -54 -54 -32 -23 -59 -47 -59 -52 0 -5
-5 -6 -10 -3 -5 3 -10 -1 -10 -10 0 -9 -4 -14 -9 -11 -5 4 -11 2 -13 -2 -1 -5
-30 -30 -63 -57 -80 -64 -165 -135 -191 -160 -11 -11 -49 -45 -84 -75 -35 -30
-80 -72 -102 -92 -21 -21 -38 -35 -38 -31 0 3 -107 -102 -237 -233 -131 -132
-241 -238 -246 -236 -5 1 -6 -1 -3 -6 5 -9 -8 -26 -118 -146 -41 -45 -116
-131 -167 -191 -51 -61 -97 -108 -103 -107 -6 2 -8 0 -4 -4 4 -4 -11 -30 -35
-58 -23 -28 -61 -76 -84 -106 -22 -30 -50 -65 -61 -76 -12 -12 -18 -25 -14
-30 4 -4 -1 -4 -11 -1 -11 4 -16 3 -12 -3 4 -6 -34 -65 -83 -133 -123 -169
-242 -341 -282 -409 -18 -31 -38 -54 -43 -51 -6 3 -7 2 -4 -4 3 -5 -4 -25 -17
-44 -27 -39 -206 -338 -206 -344 0 -3 -21 -40 -90 -161 -10 -17 -24 -42 -32
-55 -7 -13 -17 -27 -21 -30 -5 -3 -8 -9 -8 -13 1 -3 -32 -72 -73 -154 -68
-136 -256 -544 -260 -567 -2 -5 -14 -35 -28 -65 -14 -31 -31 -74 -38 -95 -7
-22 -19 -53 -27 -68 -8 -16 -16 -36 -18 -45 -2 -10 -16 -46 -31 -81 -14 -36
-28 -72 -29 -80 -2 -9 -4 -17 -5 -18 -2 -2 -4 -7 -5 -13 -1 -5 -4 -12 -5 -15
-1 -3 -3 -8 -5 -12 -1 -5 -4 -15 -8 -23 -3 -8 -35 -105 -71 -215 -54 -167 -70
-218 -91 -295 -1 -3 -7 -25 -14 -50 -7 -25 -15 -52 -16 -60 -2 -8 -15 -58 -29
-110 -14 -52 -27 -106 -30 -120 -3 -14 -7 -34 -10 -45 -9 -34 -74 -348 -80
-385 -3 -19 -8 -45 -10 -56 -2 -12 -7 -37 -10 -55 -3 -19 -8 -46 -11 -62 -14
-80 -30 -176 -40 -242 -3 -23 -7 -50 -9 -61 -2 -11 -7 -47 -11 -79 -4 -33 -9
-67 -10 -76 -2 -9 -6 -52 -10 -95 -4 -43 -9 -87 -11 -97 -5 -29 -15 -175 -30
-432 -15 -253 -8 -896 11 -1135 2 -25 6 -79 10 -120 3 -41 7 -88 9 -105 2 -16
7 -57 10 -90 3 -33 8 -77 11 -97 3 -21 8 -57 11 -80 3 -24 7 -55 10 -70 5 -37
11 -73 19 -128 14 -93 20 -131 30 -180 3 -14 9 -50 15 -80 6 -30 12 -66 15
-80 3 -14 10 -47 15 -75 36 -193 60 -300 110 -485 17 -62 40 -145 51 -183 11
-39 22 -77 24 -86 14 -68 189 -595 238 -716 37 -91 77 -186 93 -222 8 -17 14
-34 14 -38 0 -7 29 -72 101 -233 16 -34 29 -65 29 -68 0 -10 209 -420 274
-538 36 -66 66 -121 66 -122 0 -5 129 -217 240 -394 110 -177 412 -609 465
-666 5 -6 21 -26 35 -45 14 -18 48 -60 75 -94 28 -33 80 -96 115 -140 36 -44
75 -91 87 -105 12 -14 30 -34 40 -46 219 -254 587 -622 842 -844 35 -30 73
-63 85 -73 12 -11 41 -35 65 -55 25 -21 74 -62 110 -92 37 -30 71 -58 76 -62
6 -5 21 -17 34 -28 13 -11 27 -20 30 -20 3 0 20 -13 36 -28 17 -15 46 -39 65
-52 19 -13 41 -30 48 -37 7 -7 17 -13 21 -13 4 0 16 -8 27 -17 10 -10 36 -29
56 -43 21 -14 38 -28 38 -32 0 -5 6 -8 13 -8 6 0 26 -14 44 -30 18 -17 34 -30
36 -30 2 0 38 -23 78 -50 41 -28 92 -63 114 -77 22 -14 42 -29 45 -32 3 -3 21
-15 40 -25 19 -11 41 -26 48 -33 7 -7 20 -13 28 -13 8 0 14 -4 14 -9 0 -5 15
-17 33 -28 18 -10 82 -47 141 -83 140 -85 126 -77 241 -142 196 -110 376 -203
555 -286 36 -16 101 -47 145 -67 72 -34 319 -139 337 -144 4 -1 24 -9 44 -17
20 -8 43 -13 51 -10 8 3 12 2 9 -3 -3 -5 9 -14 27 -21 17 -7 55 -21 82 -32 90
-37 304 -106 309 -100 3 3 6 -1 6 -8 0 -7 3 -10 7 -7 3 4 12 2 20 -4 7 -6 13
-9 13 -6 0 3 15 0 34 -8 18 -8 36 -11 40 -8 3 4 6 0 6 -7 0 -7 3 -11 6 -8 3 4
21 0 40 -8 19 -8 34 -11 34 -8 0 4 7 1 15 -6 8 -6 19 -9 25 -5 5 3 10 2 10 -3
0 -6 17 -13 38 -17 52 -11 47 -10 152 -40 52 -15 102 -29 110 -31 8 -2 33 -8
55 -14 38 -11 146 -37 190 -46 11 -2 31 -7 45 -10 75 -18 155 -32 162 -28 5 3
8 1 8 -3 0 -5 8 -9 18 -10 19 -2 55 -8 92 -17 14 -3 36 -8 50 -10 14 -3 36 -7
50 -10 13 -3 40 -8 60 -11 20 -3 47 -8 60 -10 14 -3 36 -7 50 -10 14 -3 34 -7
45 -9 11 -2 40 -7 65 -10 25 -3 54 -8 66 -10 19 -4 72 -11 164 -22 19 -2 51
-6 70 -9 19 -2 62 -7 95 -10 33 -3 85 -7 115 -10 121 -11 273 -22 445 -31 236
-14 741 -8 1025 11 25 2 90 6 145 9 55 3 111 8 124 11 14 2 57 7 95 10 39 3
84 8 101 11 16 3 50 7 75 10 25 3 56 7 70 9 14 2 48 6 75 9 55 7 97 13 135 21
13 2 40 7 60 10 35 5 61 10 110 20 14 2 39 7 55 10 45 7 75 14 93 19 9 3 34 8
56 12 37 5 46 7 99 19 12 3 33 7 47 10 49 9 66 13 145 34 44 11 92 22 107 25
14 2 36 9 47 16 12 6 21 9 21 6 0 -2 16 0 36 6 20 5 44 11 53 13 9 3 52 14 96
26 44 11 85 22 90 24 46 10 80 21 140 42 39 14 77 26 85 28 8 2 17 4 20 5 3 1
8 2 13 1 4 0 7 3 7 7 0 5 6 9 13 10 27 1 61 12 66 20 3 5 14 8 24 6 9 -1 17 1
17 5 0 4 6 8 13 8 15 0 179 56 232 79 22 10 43 19 48 20 4 1 9 3 12 4 3 1 8 3
13 4 20 4 285 112 417 170 83 37 167 74 188 83 20 9 37 20 37 25 0 5 5 6 10 3
6 -3 22 3 36 14 15 11 30 18 35 15 5 -3 9 -1 9 4 0 8 28 20 47 20 3 0 9 4 12
9 3 4 59 35 124 67 65 33 153 80 195 104 43 24 83 45 90 45 6 0 12 5 12 10 0
6 3 8 6 4 3 -3 11 -1 18 4 17 14 135 89 181 114 90 50 154 93 147 99 -4 4 -2
7 3 6 19 -4 34 0 47 13 7 7 49 35 93 61 43 27 85 55 92 62 8 7 40 30 73 50 33
20 57 41 53 47 -3 6 -1 7 6 3 6 -4 36 11 69 36 31 24 70 52 87 62 16 11 38 27
49 37 10 10 24 16 29 12 6 -3 7 -2 4 4 -4 6 5 15 19 22 15 6 22 16 18 23 -4 7
-3 8 4 4 10 -6 27 5 66 39 6 6 40 33 76 60 36 27 72 56 80 65 37 38 108 89
116 82 5 -4 6 -3 2 2 -4 5 14 25 40 44 26 20 67 55 92 78 25 23 56 52 70 64
100 84 176 155 380 354 101 98 365 376 406 426 16 19 37 43 47 52 11 10 16 22
11 29 -4 7 -3 9 3 6 5 -3 16 2 24 11 201 235 302 364 490 622 68 95 139 193
158 218 19 26 56 81 81 122 26 41 79 126 118 188 40 63 72 117 72 121 0 4 14
29 32 57 181 282 453 831 594 1197 30 78 59 150 64 159 6 10 10 22 10 27 0 5
8 26 17 47 9 22 18 44 19 49 2 7 118 356 162 485 3 8 6 20 7 25 2 6 19 70 39
143 20 73 34 137 30 144 -4 6 -3 8 3 5 6 -4 14 7 18 26 4 17 9 37 11 42 2 6 6
24 9 40 3 17 11 48 17 70 5 22 12 47 13 55 2 8 9 38 15 65 15 64 19 83 25 120
3 17 8 38 11 47 5 19 12 49 19 93 3 17 8 41 10 55 10 49 15 75 20 110 3 20 8
47 10 60 11 52 37 219 50 310 3 25 8 56 10 70 8 54 16 125 20 174 5 52 11 116
21 216 19 186 28 448 28 780 -1 333 -8 538 -29 756 -2 27 -7 79 -10 115 -8 92
-15 159 -20 199 -2 19 -7 55 -10 80 -6 48 -15 115 -20 141 -2 9 -6 40 -10 70
-3 30 -8 61 -10 69 -2 8 -7 31 -10 50 -3 19 -8 49 -11 65 -3 17 -7 44 -10 60
-8 49 -47 250 -59 305 -4 14 -8 34 -10 45 -9 39 -15 65 -20 85 -3 11 -7 29
-10 40 -3 11 -7 29 -10 40 -8 32 -16 64 -20 80 -2 8 -4 15 -5 15 -2 0 -7 20
-15 59 -10 48 -103 384 -120 434 -2 7 -5 14 -5 17 -1 2 -10 28 -21 57 -11 29
-22 60 -24 68 -9 38 -108 316 -146 410 -23 58 -55 139 -71 180 -17 41 -48 118
-70 170 -43 102 -272 569 -336 685 -69 125 -133 236 -168 291 -19 29 -34 55
-34 58 0 3 -31 55 -70 117 -38 61 -70 113 -70 115 0 3 -5 10 -11 17 -5 7 -29
41 -52 77 -75 114 -197 290 -254 365 -5 6 -37 48 -72 95 -124 163 -224 292
-246 316 -5 6 -28 32 -50 58 -22 27 -47 56 -55 66 -20 23 -103 120 -127 146
-10 12 -40 48 -68 80 -63 75 -530 541 -614 614 -35 30 -74 64 -87 75 -12 11
-46 40 -74 65 -29 25 -57 50 -64 55 -6 6 -47 40 -91 75 -44 36 -82 67 -85 70
-6 7 -188 149 -225 175 -15 11 -32 25 -39 30 -17 16 -255 187 -306 220 -25 17
-47 32 -50 35 -3 3 -30 22 -60 41 -30 20 -100 65 -155 101 -114 74 -437 264
-526 309 -37 18 -57 34 -53 41 4 6 3 8 -4 4 -14 -9 -83 25 -75 37 3 6 2 7 -3
4 -6 -3 -99 39 -207 93 -109 54 -199 99 -200 99 -1 -1 -31 13 -67 29 -215 98
-441 191 -655 267 -66 23 -136 49 -155 57 -19 8 -38 16 -42 16 -5 1 -10 3 -13
3 -3 1 -9 3 -15 4 -5 1 -12 4 -15 5 -3 1 -8 3 -12 4 -5 1 -33 10 -63 21 -59
20 -78 26 -97 27 -7 1 -13 4 -13 8 0 4 -6 7 -12 8 -15 1 -53 10 -53 12 0 1
-11 4 -25 6 -14 3 -56 14 -94 25 -38 11 -76 22 -85 24 -9 2 -58 15 -108 28
-51 14 -93 23 -93 20 0 -3 -7 0 -15 7 -8 7 -15 10 -15 7 0 -3 -26 2 -57 10
-32 8 -66 17 -75 19 -36 8 -64 14 -98 21 -46 9 -49 10 -55 13 -7 3 -13 5 -70
15 -27 4 -54 9 -60 11 -12 3 -69 13 -110 20 -16 3 -37 7 -45 9 -8 2 -31 6 -50
9 -19 3 -44 7 -55 10 -11 2 -40 7 -65 10 -25 3 -56 8 -70 11 -45 9 -76 15
-111 19 -19 3 -54 7 -79 11 -58 7 -108 13 -195 20 -38 3 -86 7 -105 10 -72 9
-240 20 -480 31 -148 6 -609 12 -614 7z m724 -217 c74 -4 155 -9 180 -11 81
-6 184 -15 225 -20 22 -3 67 -7 100 -11 56 -5 79 -8 163 -20 17 -2 47 -6 65
-8 17 -3 43 -7 57 -10 14 -3 43 -7 65 -10 22 -3 51 -7 65 -10 14 -3 41 -7 60
-10 19 -3 58 -10 85 -15 47 -9 116 -20 160 -27 11 -1 20 -3 20 -4 0 -2 10 -4
60 -14 17 -3 59 -12 95 -20 35 -8 68 -12 72 -10 4 3 8 1 8 -4 0 -6 13 -9 30
-8 16 1 27 0 25 -3 -5 -4 101 -35 157 -45 13 -3 23 -5 23 -6 0 -1 7 -3 15 -5
8 -1 60 -15 115 -30 55 -15 105 -28 110 -29 23 -5 135 -39 208 -63 43 -14 83
-26 90 -27 7 -2 25 -8 40 -14 16 -7 34 -12 41 -12 7 0 16 -3 20 -7 6 -7 29
-13 54 -15 6 -1 12 -4 12 -8 0 -4 6 -7 13 -7 18 -1 41 -7 47 -14 3 -3 34 -16
70 -28 63 -23 369 -142 420 -164 14 -5 27 -11 30 -12 3 -1 30 -13 60 -27 30
-15 62 -28 70 -30 8 -2 17 -5 20 -8 9 -10 113 -55 118 -52 3 2 8 0 11 -5 8
-10 138 -75 147 -73 4 1 10 -2 13 -7 3 -4 47 -28 96 -53 50 -24 110 -56 135
-70 25 -15 90 -51 145 -80 55 -29 124 -69 153 -87 28 -19 52 -30 52 -26 0 4 4
3 8 -3 4 -5 36 -28 72 -49 182 -110 618 -402 650 -435 8 -9 65 -44 68 -42 1 1
10 -6 20 -16 10 -10 51 -44 92 -77 93 -73 271 -216 286 -230 6 -5 33 -29 60
-51 27 -23 59 -50 70 -60 12 -11 48 -41 80 -69 185 -159 563 -542 764 -775 30
-35 60 -68 65 -74 6 -6 30 -36 55 -66 25 -30 49 -60 55 -66 5 -6 22 -26 37
-45 14 -19 35 -44 45 -55 10 -12 29 -36 43 -54 23 -31 46 -59 69 -87 38 -44
198 -272 316 -448 180 -268 295 -455 396 -640 20 -38 56 -104 79 -145 64 -117
213 -422 273 -560 30 -69 64 -145 75 -170 84 -184 272 -706 318 -882 1 -5 2
-9 4 -10 1 -2 3 -10 6 -18 2 -8 15 -55 29 -105 14 -49 27 -99 30 -110 2 -11
12 -47 21 -80 9 -33 18 -67 20 -75 2 -8 8 -33 14 -55 8 -32 45 -189 54 -230 1
-5 5 -19 9 -30 3 -11 8 -38 12 -60 3 -22 7 -47 10 -55 2 -8 6 -31 9 -50 3 -19
7 -44 10 -55 2 -11 7 -40 10 -65 3 -25 8 -54 10 -66 2 -12 8 -45 11 -75 9 -67
13 -89 18 -114 3 -11 8 -45 12 -75 4 -30 9 -62 10 -71 2 -9 6 -40 10 -70 3
-30 8 -65 10 -79 17 -116 40 -406 51 -650 11 -257 0 -799 -21 -1030 -2 -30 -7
-84 -10 -120 -14 -161 -24 -257 -30 -280 -2 -8 -7 -40 -11 -70 -9 -72 -11 -89
-18 -125 -2 -16 -7 -50 -11 -75 -3 -25 -8 -56 -10 -70 -2 -14 -7 -45 -10 -70
-3 -25 -8 -52 -10 -60 -2 -8 -6 -31 -9 -50 -3 -19 -8 -46 -11 -60 -3 -14 -9
-50 -15 -80 -15 -84 -17 -92 -29 -135 -5 -22 -13 -56 -16 -75 -9 -45 -13 -65
-15 -65 -2 0 -4 -10 -13 -50 -3 -11 -17 -65 -32 -120 -14 -55 -28 -110 -31
-122 -2 -12 -9 -34 -14 -48 -5 -14 -7 -25 -4 -25 3 0 2 -6 -3 -12 -4 -7 -8
-17 -10 -23 -1 -5 -11 -41 -23 -80 -12 -38 -22 -74 -24 -80 -1 -5 -17 -57 -35
-115 -18 -58 -34 -109 -36 -115 -1 -5 -5 -17 -8 -25 -4 -8 -22 -62 -41 -120
-19 -58 -47 -134 -61 -170 -15 -36 -28 -69 -29 -75 -2 -5 -8 -21 -13 -35 -6
-14 -21 -50 -32 -80 -61 -155 -197 -457 -287 -635 -150 -295 -177 -344 -188
-338 -5 3 -6 1 -3 -5 13 -20 -372 -654 -444 -731 -11 -11 -17 -21 -15 -21 5 0
-79 -124 -136 -200 -12 -16 -26 -26 -31 -23 -6 3 -7 1 -3 -6 6 -9 -130 -196
-210 -287 -11 -12 -32 -39 -49 -60 -16 -20 -34 -42 -40 -48 -5 -6 -46 -54 -90
-106 -44 -52 -82 -97 -85 -100 -3 -3 -39 -43 -80 -90 -78 -89 -461 -475 -565
-570 -128 -117 -197 -175 -207 -172 -5 1 -7 -1 -4 -6 3 -5 -25 -33 -62 -63
-64 -51 -182 -151 -210 -176 -7 -7 -26 -20 -42 -30 -17 -9 -30 -21 -30 -26 0
-5 -7 -7 -15 -3 -8 3 -14 2 -12 -3 2 -7 -64 -63 -164 -140 -122 -94 -617 -420
-627 -413 -3 2 -8 -1 -11 -6 -3 -5 -35 -27 -71 -48 -36 -20 -68 -42 -72 -48
-4 -6 -8 -8 -8 -4 0 3 -25 -9 -56 -27 -31 -19 -61 -32 -67 -28 -6 3 -7 1 -3
-5 4 -7 1 -12 -8 -12 -9 0 -16 -5 -16 -12 0 -6 -2 -9 -5 -6 -3 3 -49 -19 -103
-49 -135 -75 -477 -242 -618 -303 -66 -28 -138 -60 -162 -71 -24 -11 -47 -17
-52 -14 -6 4 -10 2 -10 -3 0 -5 -27 -19 -61 -31 -33 -13 -77 -30 -97 -39 -20
-8 -40 -15 -44 -14 -5 1 -8 -2 -8 -6 0 -5 -6 -9 -13 -9 -7 0 -67 -20 -134 -46
-66 -25 -131 -48 -144 -51 -13 -2 -52 -14 -87 -26 -34 -11 -68 -18 -74 -14 -6
4 -8 3 -5 -3 7 -12 -46 -30 -100 -36 -12 -1 -19 -4 -17 -7 4 -4 -57 -26 -101
-35 -11 -3 -51 -14 -90 -25 -72 -21 -95 -27 -130 -34 -11 -3 -62 -16 -114 -30
-52 -14 -98 -23 -102 -20 -5 3 -9 1 -9 -4 0 -5 -6 -9 -12 -10 -7 0 -24 -3 -38
-6 -14 -4 -34 -8 -45 -11 -11 -2 -31 -6 -45 -10 -14 -3 -34 -7 -45 -10 -11 -2
-31 -7 -45 -10 -14 -3 -36 -8 -50 -10 -14 -2 -36 -7 -50 -10 -42 -9 -73 -15
-110 -21 -38 -6 -63 -10 -95 -17 -11 -3 -45 -8 -75 -12 -30 -4 -62 -9 -71 -10
-9 -2 -40 -6 -69 -10 -29 -4 -60 -8 -69 -10 -9 -1 -36 -6 -61 -9 -25 -3 -56
-8 -69 -11 -13 -2 -58 -7 -100 -11 -131 -11 -144 -12 -212 -19 -361 -37 -1006
-47 -1334 -20 -65 6 -168 15 -227 20 -20 2 -72 7 -115 10 -43 4 -89 8 -103 10
-14 2 -54 7 -90 10 -36 4 -74 9 -85 11 -63 13 -100 19 -180 28 -36 4 -101 14
-135 21 -37 8 -70 13 -120 20 -24 4 -47 8 -50 10 -3 2 -25 6 -49 10 -36 5
-141 27 -241 51 -14 3 -32 7 -40 9 -8 2 -16 4 -17 4 -2 1 -5 1 -8 2 -2 0 -19
5 -37 10 -18 6 -42 12 -53 14 -11 3 -74 18 -140 35 -66 17 -128 33 -139 35
-10 3 -44 12 -75 21 -31 9 -57 16 -58 15 -2 0 -18 6 -37 14 -18 8 -36 11 -40
8 -3 -4 -6 0 -6 7 0 7 -3 11 -6 7 -3 -3 -25 1 -47 10 -23 8 -49 16 -57 18 -54
11 -176 50 -181 58 -3 5 -10 8 -15 8 -16 -1 -138 42 -279 100 -16 7 -35 13
-40 14 -9 2 -84 31 -170 66 -16 7 -32 13 -35 14 -3 0 -27 11 -54 23 -28 13
-60 25 -73 28 -13 4 -23 10 -23 15 0 5 -6 9 -14 9 -18 0 -130 51 -134 62 -2 4
-7 6 -12 3 -5 -3 -16 2 -24 11 -9 8 -16 13 -16 10 0 -7 -362 174 -382 192 -10
8 -18 12 -18 8 0 -4 -12 1 -27 12 -16 10 -56 33 -91 51 -79 40 -363 209 -460
273 -41 26 -77 48 -82 48 -5 0 -10 4 -12 8 -1 5 -68 53 -148 107 -125 85 -269
188 -320 228 -8 7 -51 39 -95 72 -44 33 -86 66 -93 73 -8 7 -30 25 -50 40 -21
15 -42 32 -48 37 -15 13 -48 41 -114 95 -30 25 -57 47 -60 50 -3 3 -34 30 -70
60 -113 96 -258 231 -424 396 -100 99 -306 320 -376 403 -75 89 -80 94 -133
155 -55 63 -251 309 -277 346 -8 12 -20 28 -25 34 -6 6 -43 56 -82 111 -40 55
-77 105 -82 112 -6 7 -11 16 -11 22 0 5 -4 11 -8 13 -14 6 -269 398 -377 580
-54 92 -84 143 -113 198 -20 36 -48 88 -64 115 -51 91 -229 457 -308 635 -80
180 -233 579 -289 755 -18 55 -35 107 -38 115 -3 8 -7 20 -9 25 -1 6 -17 55
-34 110 -30 94 -34 109 -44 152 -2 10 -14 54 -26 98 -12 44 -23 89 -25 100 -4
17 -13 55 -21 88 -1 4 -2 8 -4 10 -1 1 -3 9 -5 18 -2 15 -28 127 -41 182 -2 9
-6 25 -8 35 -5 19 -52 260 -60 307 -3 17 -8 39 -10 50 -2 11 -7 40 -11 65 -4
25 -9 52 -10 60 -2 8 -6 38 -9 65 -4 28 -9 61 -11 75 -8 56 -14 98 -21 155 -3
33 -8 68 -10 78 -3 17 -8 62 -20 190 -2 26 -6 68 -9 95 -35 353 -35 1065 -1
1417 10 102 15 148 22 210 3 33 8 74 9 90 7 70 16 143 20 166 3 13 8 43 11 65
2 23 7 52 9 65 3 13 7 41 10 64 6 41 11 72 20 128 8 47 13 77 20 117 3 19 8
46 10 60 3 14 8 36 10 50 3 14 8 40 11 59 6 35 10 56 19 91 12 48 16 66 21 90
13 65 108 434 130 507 13 46 24 84 23 85 -1 2 6 20 14 41 9 20 14 37 11 37 -3
0 -2 6 3 13 4 6 8 17 9 22 3 17 104 319 114 340 5 11 45 112 88 225 44 113 87
220 96 238 9 18 14 38 10 44 -4 7 -3 8 4 4 7 -4 12 -2 12 5 0 6 16 45 35 86
19 41 35 77 35 79 0 13 262 530 276 546 10 10 14 18 9 18 -4 0 -2 7 5 15 22
27 49 88 43 98 -3 6 -2 7 4 4 5 -4 16 6 24 21 7 15 31 55 51 90 21 34 34 62
30 62 -4 0 -2 4 4 8 5 4 21 25 34 47 52 88 300 467 311 475 3 3 11 14 17 25 5
11 47 69 91 129 44 59 78 112 75 117 -3 5 -1 8 4 7 6 -2 33 26 62 62 29 36 60
75 71 88 10 12 16 22 12 22 -3 0 4 9 17 20 13 11 20 20 16 20 -4 0 3 10 16 23
13 12 48 51 78 87 30 35 62 72 70 81 28 31 65 74 115 133 50 60 140 157 250
270 33 34 76 80 96 101 30 34 106 106 344 330 18 17 54 48 80 70 27 22 58 49
70 60 13 11 46 40 75 65 29 25 62 54 74 65 29 27 136 116 170 140 27 19 42 32
83 66 41 34 133 99 139 99 3 -1 11 5 17 13 7 8 57 45 112 84 135 93 159 108
168 105 5 -1 6 2 3 7 -5 8 15 21 30 20 4 0 10 3 13 8 9 13 214 146 376 244 50
30 92 57 93 62 2 4 8 5 13 1 5 -3 9 0 9 7 0 7 3 10 6 6 3 -3 15 3 27 13 11 11
24 17 29 14 4 -3 8 0 8 6 0 6 5 8 10 5 6 -3 10 -1 10 4 0 6 7 11 16 11 9 0 12
5 8 13 -4 6 -4 9 1 5 4 -4 26 2 49 14 22 11 43 20 45 19 2 -2 7 1 10 6 3 5 40
26 81 47 41 22 89 47 107 57 18 10 33 16 33 12 0 -3 9 2 20 12 11 10 20 14 20
9 0 -5 4 -4 8 2 10 16 169 94 176 87 3 -4 6 -2 6 4 0 11 59 40 73 35 4 -1 7 3
7 8 0 5 3 10 8 9 17 -3 51 14 46 22 -3 5 2 6 10 3 10 -4 16 -1 16 7 0 7 3 10
6 6 4 -3 19 0 35 9 16 8 29 12 29 8 0 -4 6 -2 13 4 30 25 654 265 742 286 6 1
35 11 65 21 30 11 58 18 63 17 4 -1 7 2 7 6 0 5 6 9 13 10 6 0 22 3 35 6 12 3
30 8 40 10 9 2 29 9 45 15 15 6 38 13 50 15 12 3 76 19 142 36 66 18 127 34
135 35 8 2 15 4 15 5 0 1 9 4 20 6 18 4 46 11 53 13 1 1 4 1 7 2 2 0 25 7 51
15 25 7 50 11 55 8 5 -3 9 -1 9 5 0 5 9 8 20 6 11 -2 22 0 25 5 3 5 13 6 22 3
9 -4 14 -2 11 3 -4 5 6 9 20 10 15 0 38 3 52 7 40 10 65 15 101 21 19 3 45 8
59 11 25 6 42 9 123 20 23 3 49 8 57 10 8 2 33 7 55 10 23 3 50 7 60 9 46 8
112 19 135 21 14 2 41 6 60 10 19 3 53 8 75 10 22 2 66 7 97 10 119 12 135 14
223 21 138 10 159 12 325 19 85 4 156 8 157 9 5 5 645 -2 763 -8z" />
        <path d="M5970 16164 c0 -5 -39 -8 -88 -7 l-87 2 0 -2773 1 -2774 41 -54 c23
-30 47 -61 55 -69 8 -8 49 -58 91 -112 l78 -97 -38 -48 c-21 -27 -73 -92 -116
-145 -42 -53 -85 -111 -95 -129 -18 -32 -19 -112 -16 -2223 1 -1204 3 -2192 3
-2195 2 -8 2851 -3 2859 5 4 4 7 754 7 1668 l0 1662 703 0 703 0 23 -35 c13
-19 50 -77 82 -127 32 -51 91 -142 129 -202 39 -60 128 -201 199 -313 370
-583 409 -642 418 -646 4 -2 8 -8 8 -14 0 -12 155 -259 385 -613 66 -101 241
-378 274 -433 14 -23 49 -78 78 -122 29 -44 75 -117 103 -162 28 -46 68 -110
90 -143 22 -33 43 -67 47 -75 4 -8 24 -40 45 -72 21 -31 38 -62 38 -68 0 -5 5
-10 10 -10 6 0 10 -7 10 -15 0 -8 5 -15 10 -15 6 0 10 -4 10 -10 0 -5 38 -67
84 -137 l83 -128 289 2 c159 1 314 2 345 2 l55 1 -2 58 c-1 31 -3 73 -3 93
l-1 36 -287 -1 -288 -1 -258 405 c-142 223 -262 414 -267 425 -5 11 -41 67
-79 125 -39 58 -105 161 -147 230 -42 69 -96 154 -119 190 -23 36 -71 110
-107 165 -114 176 -142 220 -153 240 -6 11 -43 69 -81 128 -38 60 -122 193
-187 295 -64 103 -143 228 -176 277 -129 199 -192 306 -185 317 4 6 3 8 -3 5
-6 -4 -60 68 -124 168 -63 96 -135 208 -161 247 -26 40 -53 84 -60 98 l-13 26
-855 -1 -855 0 0 -1667 c0 -1126 -3 -1668 -10 -1669 -5 -1 -346 -2 -757 -3
l-748 -1 0 190 c-1 104 -1 538 0 964 0 700 2 776 16 793 9 9 21 15 25 12 5 -3
9 -1 9 5 0 5 8 12 18 15 20 7 74 78 79 103 19 101 1 182 -54 239 -21 21 -36
43 -35 47 1 5 -2 6 -7 2 -6 -3 -24 1 -41 10 -31 16 -102 21 -148 11 -34 -7
-112 -55 -119 -72 -3 -8 -10 -11 -17 -7 -6 3 -8 3 -4 -1 4 -5 -3 -27 -15 -49
-16 -31 -22 -58 -21 -102 1 -87 31 -139 114 -199 l46 -33 -1 -964 0 -964 -407
-1 c-225 0 -408 2 -409 5 -1 3 -2 939 -3 2079 l-1 2073 130 167 c186 239 180
229 165 258 -7 13 -20 32 -29 41 -9 10 -41 50 -71 88 -30 39 -59 75 -65 81 -6
6 -37 46 -70 89 l-60 77 0 2642 0 2642 441 -1 c261 0 440 4 437 9 -4 5 0 5 8
0 19 -11 1919 -12 1911 0 -3 5 1 5 9 0 19 -12 649 -12 642 0 -4 5 0 5 8 0 20
-12 139 -13 132 -1 -4 6 -1 7 8 2 7 -5 308 -10 669 -11 360 -2 673 -5 695 -7
22 -3 76 -8 120 -12 44 -4 94 -8 110 -10 17 -1 62 -6 100 -10 39 -3 81 -8 95
-10 14 -2 44 -6 68 -9 66 -9 126 -18 137 -20 6 -2 33 -7 60 -11 28 -5 52 -10
55 -10 3 -1 23 -5 45 -10 86 -17 113 -23 135 -30 10 -3 27 -7 37 -9 113 -23
330 -88 455 -136 53 -21 99 -35 102 -32 3 3 6 0 6 -6 0 -7 6 -12 13 -12 6 0
39 -12 72 -26 33 -14 68 -28 79 -31 18 -6 196 -95 301 -151 51 -28 304 -194
340 -224 11 -9 58 -47 105 -84 122 -97 393 -373 476 -484 182 -243 304 -452
413 -709 40 -94 119 -314 136 -381 34 -129 55 -211 59 -235 3 -16 8 -41 11
-55 15 -78 14 -67 30 -200 10 -77 14 -122 20 -210 4 -47 8 -107 10 -135 14
-174 -1 -547 -30 -765 -7 -58 -17 -126 -21 -145 -2 -11 -6 -33 -9 -50 -6 -32
-12 -64 -21 -105 -3 -14 -7 -36 -10 -50 -3 -14 -7 -33 -10 -42 -3 -9 -7 -25
-9 -35 -10 -46 -62 -203 -66 -199 -3 3 -5 -3 -6 -12 -1 -17 -10 -55 -13 -59
-2 -2 -3 -6 -5 -10 -2 -9 -2 -9 -52 -133 -42 -104 -174 -360 -183 -355 -3 2
-6 -5 -7 -15 -2 -18 -68 -118 -88 -132 -5 -4 -6 -8 -2 -8 4 0 3 -6 -2 -12 -6
-7 -44 -58 -85 -113 -41 -55 -86 -113 -100 -130 -104 -118 -160 -174 -169
-168 -5 3 -7 2 -4 -4 8 -12 -48 -64 -59 -55 -4 4 -4 2 -1 -4 3 -6 -15 -28 -40
-50 -25 -21 -51 -44 -57 -49 -25 -24 -214 -172 -257 -202 -26 -17 -50 -30 -53
-27 -3 2 -4 1 -1 -2 5 -8 -37 -37 -120 -84 -33 -18 -63 -38 -67 -44 -4 -6 -8
-8 -8 -3 0 4 -17 -4 -38 -17 -22 -13 -94 -52 -160 -85 -67 -34 -122 -63 -122
-66 0 -5 55 -94 165 -265 40 -63 90 -142 111 -175 21 -33 85 -134 144 -225 59
-91 167 -259 241 -375 73 -115 147 -231 164 -257 16 -26 71 -110 120 -188 50
-77 122 -189 160 -248 39 -59 94 -146 124 -192 85 -135 95 -150 157 -245 32
-49 90 -140 129 -202 38 -61 144 -229 234 -372 90 -143 169 -257 174 -254 6 3
7 1 3 -5 -4 -7 -2 -17 4 -24 11 -14 70 -106 139 -220 50 -81 89 -116 264 -236
74 -51 148 -104 164 -118 37 -32 49 -31 25 4 -10 15 -47 74 -82 132 -34 58
-73 121 -85 140 -38 60 -239 371 -291 450 -27 41 -51 79 -53 85 -4 10 -58 96
-126 200 -18 28 -79 122 -135 210 -56 88 -141 220 -189 292 -47 73 -104 161
-125 195 -22 35 -68 107 -103 160 -35 54 -63 102 -63 108 0 5 -4 10 -10 10 -5
0 -10 6 -10 14 0 8 -4 16 -8 18 -4 2 -34 46 -67 98 -76 123 -150 238 -240 375
-86 131 -448 698 -480 753 -12 19 -119 184 -144 221 -43 64 -43 64 -3 86 20
10 40 18 45 17 4 -1 7 3 7 9 0 5 5 7 10 4 6 -3 10 -3 10 2 0 4 21 19 48 33 26
13 66 37 89 53 24 15 43 24 43 20 0 -4 4 -3 8 2 4 6 36 30 72 54 60 42 179
129 190 141 3 3 25 21 50 40 78 60 232 201 294 269 17 18 44 48 60 65 16 17
45 51 65 76 20 25 42 52 50 60 78 81 325 465 320 496 0 4 4 10 9 13 15 10 160
322 177 381 0 3 17 55 37 115 20 61 42 130 49 155 7 25 14 50 15 55 2 6 5 21
8 35 6 24 10 42 21 93 7 28 13 61 20 111 4 21 9 48 11 60 2 11 7 41 10 66 3
25 8 54 10 65 2 11 7 49 10 85 3 36 7 85 10 110 16 170 21 484 10 635 -10 138
-23 280 -31 340 -8 55 -26 159 -40 225 -3 14 -8 39 -10 55 -3 17 -12 57 -20
90 -9 33 -18 70 -20 81 -3 12 -15 53 -27 90 -12 38 -23 72 -24 77 -1 4 -2 8
-4 10 -1 1 -3 9 -5 17 -10 52 -119 319 -182 447 -100 204 -268 472 -375 598
-45 53 -65 75 -127 145 -119 131 -303 303 -385 359 -12 8 -23 18 -26 21 -3 3
-43 34 -90 68 -47 34 -91 66 -97 72 -7 6 -13 7 -13 3 0 -4 -4 -3 -8 2 -4 6
-38 30 -77 55 -38 25 -73 49 -77 55 -5 6 -8 6 -8 0 0 -7 -3 -7 -8 0 -8 11 -38
28 -227 125 -71 37 -159 78 -195 93 -36 14 -83 33 -105 43 -22 10 -44 19 -50
20 -5 1 -23 8 -40 15 -16 6 -35 13 -41 14 -35 8 -54 18 -49 26 3 5 -1 6 -9 3
-8 -3 -50 6 -93 20 -43 13 -98 30 -123 37 -25 7 -49 14 -55 15 -5 2 -19 5 -30
8 -11 2 -20 5 -20 6 0 2 -26 8 -65 16 -19 3 -43 10 -52 15 -10 5 -18 8 -18 5
0 -3 -72 12 -180 38 -8 2 -35 7 -60 10 -25 3 -56 8 -70 11 -14 3 -45 8 -70 11
-25 3 -53 8 -64 10 -10 2 -44 6 -75 9 -31 3 -72 8 -91 10 -97 11 -178 18 -202
18 -15 0 -26 2 -24 6 2 3 -30 7 -72 7 -43 1 -144 4 -227 7 -146 6 -4650 9
-4730 3 -22 -1 -46 2 -52 7 -7 5 -13 6 -13 1z" />
        <path d="M10138 15884 c-6 -5 -49 -14 -80 -17 -10 -1 -18 -6 -18 -11 0 -5 -3
-7 -6 -3 -11 10 -96 -71 -119 -114 -8 -15 -20 -28 -27 -31 -7 -2 -817 -4
-1800 -3 -1220 0 -1788 -3 -1789 -10 0 -5 0 -1118 0 -2473 1 -1718 4 -2469 12
-2483 5 -11 36 -50 67 -87 50 -59 115 -142 204 -258 15 -20 43 -54 63 -77 20
-22 32 -43 28 -46 -4 -3 -30 -35 -58 -71 -63 -82 -71 -91 -80 -82 -5 4 -6 2
-2 -3 7 -13 -61 -101 -75 -97 -5 1 -7 -2 -4 -7 4 -5 -1 -16 -9 -24 -8 -9 -15
-18 -15 -21 0 -3 -12 -19 -27 -35 -16 -17 -45 -52 -67 -78 l-38 -49 1 -1721 1
-1721 -26 -6 c-15 -4 -22 -11 -18 -18 4 -6 3 -8 -4 -4 -6 3 -17 0 -25 -8 -8
-8 -16 -13 -19 -11 -8 8 -68 -92 -74 -125 -24 -128 26 -229 143 -285 117 -57
270 1 329 123 26 55 24 155 -5 211 -26 49 -46 69 -107 106 l-41 25 -1 1690 -1
1690 74 90 c68 81 177 221 291 374 l44 58 -22 37 c-12 20 -28 42 -36 50 -7 8
-21 26 -30 40 -9 14 -22 33 -29 41 -7 8 -47 58 -88 110 -42 52 -84 104 -93
115 -10 11 -38 47 -63 80 l-46 60 0 2373 0 2372 51 1 c73 0 3379 0 3391 -1 6
0 19 -18 29 -40 36 -74 109 -119 204 -124 28 -1 52 1 52 5 0 4 9 6 20 4 31 -6
111 55 145 109 26 44 30 58 29 120 -1 70 -3 82 -19 121 -20 48 -112 119 -160
124 -16 2 -35 7 -41 12 -6 5 -13 6 -16 3z m52 -176 c39 -26 50 -59 38 -106
-10 -38 -58 -72 -103 -72 -35 0 -84 40 -86 70 -2 29 -3 33 -13 49 -6 10 -5 12
2 7 7 -4 12 -1 12 7 0 18 35 59 44 50 3 -3 6 -1 6 5 0 20 65 13 100 -10z
m-3754 -9496 c75 -60 42 -178 -53 -189 -36 -4 -45 -1 -75 29 -49 50 -51 97 -4
144 27 27 42 34 73 34 21 0 48 -8 59 -18z" />
        <path d="M10823 15482 c-95 -93 -175 -167 -178 -163 -4 3 -5 2 -3 -4 1 -5 -4
-19 -12 -30 -15 -21 -20 -21 -1275 -21 l-1260 1 -22 37 c-48 84 -106 121 -192
124 -91 4 -137 -21 -207 -112 -21 -27 -32 -65 -38 -129 -7 -68 73 -177 153
-211 56 -24 154 -20 187 7 8 6 14 9 14 6 0 -10 53 45 78 81 13 17 20 32 15 32
-4 0 -3 4 4 8 6 4 586 6 1290 6 1256 -2 1279 -2 1311 18 17 11 32 23 32 26 0
9 22 31 197 203 l138 137 50 -3 c43 -2 145 -10 260 -20 17 -2 50 -6 75 -9 25
-4 59 -8 75 -10 17 -2 58 -9 92 -16 35 -6 75 -13 90 -16 16 -3 44 -9 63 -14
19 -5 46 -11 60 -14 14 -3 36 -8 50 -11 14 -3 32 -8 40 -10 8 -2 16 -4 18 -5
1 -2 5 -3 10 -4 4 -1 54 -17 111 -35 57 -18 109 -34 115 -36 6 -1 18 -5 26 -8
8 -3 44 -17 80 -30 216 -80 535 -256 701 -387 126 -100 145 -116 238 -205 51
-49 98 -89 103 -87 5 1 7 -1 4 -6 -3 -5 2 -18 12 -28 9 -10 42 -48 72 -84 30
-36 57 -67 60 -70 3 -3 29 -37 56 -75 136 -189 268 -445 343 -670 28 -82 51
-157 51 -165 0 -19 -35 -51 -46 -42 -4 4 -4 2 0 -5 3 -6 -2 -16 -11 -22 -10
-6 -13 -11 -8 -11 6 0 6 -3 -1 -8 -21 -14 -42 -88 -40 -142 3 -99 54 -172 150
-216 93 -42 174 -32 255 34 148 120 101 358 -85 431 -29 11 -54 18 -56 16 -2
-3 -15 32 -28 78 -74 258 -240 600 -386 797 -110 148 -244 301 -348 399 -28
25 -64 60 -82 76 -32 30 -64 56 -139 114 -22 17 -51 40 -65 51 -38 31 -328
203 -387 229 -29 13 -49 29 -46 34 3 6 2 7 -4 4 -6 -4 -32 4 -59 17 -79 38
-186 83 -229 96 -22 7 -44 15 -50 19 -5 3 -12 6 -15 6 -3 1 -41 13 -85 27 -82
27 -156 48 -212 62 -10 3 -18 5 -18 6 0 1 -7 3 -15 5 -86 19 -112 24 -165 35
-27 5 -63 12 -80 15 -16 3 -41 7 -55 10 -14 3 -45 8 -70 11 -25 3 -56 7 -70 9
-25 4 -121 15 -175 21 -16 1 -88 6 -160 9 l-130 6 -172 -169z m3302 -2158 c55
-64 13 -157 -71 -163 -35 -2 -46 3 -73 29 -43 44 -44 99 -1 142 28 27 36 30
76 25 33 -3 51 -12 69 -33z" />
        <path d="M6827 15406 c4 -5 -3 -7 -15 -4 -12 4 -20 2 -16 -3 4 -8 -1 -10 -21
-9 -12 1 -108 -97 -122 -125 -31 -59 -24 -162 16 -235 18 -32 78 -86 111 -100
l25 -10 0 -758 c0 -725 -2 -791 -27 -775 -5 2 -8 -1 -8 -7 0 -6 -4 -8 -10 -5
-5 3 -10 1 -10 -5 0 -7 -7 -9 -17 -6 -10 4 -15 4 -11 1 4 -4 -7 -19 -23 -33
-63 -58 -83 -195 -40 -279 19 -38 59 -75 121 -115 l25 -15 0 -1034 c1 -822 3
-1039 14 -1057 7 -13 40 -58 74 -101 34 -42 76 -94 92 -115 17 -21 38 -48 47
-60 23 -28 26 -32 77 -101 25 -33 47 -62 50 -65 5 -4 72 -92 143 -186 10 -13
-45 -87 -57 -76 -5 4 -6 2 -2 -3 6 -12 -97 -146 -107 -139 -3 2 -4 1 -1 -2 2
-4 -22 -39 -55 -78 -83 -100 -93 -112 -156 -191 -31 -38 -64 -80 -75 -93 -10
-12 -19 -26 -19 -31 0 -5 -6 -13 -13 -19 -10 -9 -12 -91 -12 -382 1 -302 -1
-370 -12 -366 -7 3 -13 1 -13 -4 0 -5 -8 -11 -17 -14 -21 -7 -90 -66 -77 -66
5 0 3 -4 -4 -9 -20 -12 -39 -90 -36 -142 4 -76 44 -140 114 -184 80 -51 193
-42 276 21 84 63 107 205 49 300 -27 43 -46 60 -109 99 -14 9 -16 40 -17 245
-1 129 -1 281 0 336 l1 102 57 73 c55 70 67 86 103 129 8 10 29 35 45 56 17
21 56 69 88 107 31 38 54 74 50 79 -3 6 -1 8 4 5 6 -4 19 5 29 20 9 15 26 37
36 48 11 11 44 52 74 92 l56 71 -19 29 c-10 15 -22 33 -28 39 -5 7 -19 24 -30
40 -27 37 -69 92 -102 133 -50 62 -153 195 -171 221 -9 14 -27 36 -39 50 -13
14 -23 28 -23 31 0 3 -9 17 -21 30 -39 46 -54 65 -83 103 l-28 38 0 961 c0
529 1 985 1 1014 1 46 3 52 29 61 113 39 176 208 122 326 -21 48 -87 112 -124
122 -14 3 -25 14 -28 27 -3 18 -2 1482 1 1511 1 5 4 6 8 3 3 -4 12 -2 20 4 7
6 13 9 13 6 0 -3 18 11 41 31 57 52 83 112 83 192 0 101 -56 187 -150 230 -43
20 -157 32 -147 16z m104 -161 c52 -28 66 -105 26 -151 -31 -35 -102 -45 -133
-17 -51 45 -53 112 -4 156 34 31 67 34 111 12z m1 -1995 c61 -29 69 -114 16
-164 -27 -24 -37 -28 -74 -23 -47 5 -68 21 -84 62 -18 46 -12 75 23 110 35 35
69 40 119 15z" />
        <path d="M11566 15268 c-9 -5 -16 -6 -16 -2 0 3 -7 1 -15 -6 -8 -7 -15 -9 -15
-5 0 4 -7 2 -15 -5 -8 -7 -15 -9 -15 -4 0 14 -62 -61 -83 -101 -29 -56 -28
-148 2 -207 32 -61 49 -78 106 -104 94 -44 209 -25 268 45 l26 32 123 -50 c68
-27 161 -67 208 -89 84 -39 326 -182 365 -215 11 -9 52 -40 91 -69 288 -215
500 -472 672 -813 82 -162 176 -421 197 -544 3 -19 7 -37 9 -40 2 -3 7 -26 10
-51 3 -25 8 -56 10 -70 21 -121 30 -259 30 -470 0 -193 -12 -398 -27 -465 -3
-11 -8 -40 -11 -65 -6 -41 -13 -80 -20 -105 -2 -8 -17 -75 -21 -95 -1 -3 -14
-45 -29 -95 -16 -49 -28 -92 -28 -95 0 -3 -3 -9 -8 -15 -4 -5 -13 -28 -20 -50
-16 -51 -128 -277 -177 -358 -20 -34 -58 -89 -83 -122 -25 -33 -53 -73 -63
-88 -10 -15 -23 -25 -29 -21 -7 4 -8 3 -4 -4 22 -36 -460 -477 -498 -455 -6 3
-8 3 -4 -2 11 -11 -60 -58 -74 -49 -6 4 -8 3 -5 -3 15 -24 -447 -262 -558
-287 -5 -2 -42 -13 -82 -25 -67 -21 -73 -25 -92 -67 -12 -24 -21 -49 -21 -54
0 -6 -4 -9 -8 -6 -4 2 -8 -3 -9 -12 -1 -9 -18 -53 -39 -97 -21 -44 -37 -83
-36 -87 1 -5 -3 -8 -8 -8 -5 0 -9 -3 -9 -7 4 -18 -35 -92 -44 -86 -6 3 -7 1
-4 -5 4 -5 -9 -43 -28 -83 -19 -39 -31 -77 -27 -83 4 -6 42 -65 86 -131 43
-66 104 -159 135 -208 31 -48 88 -136 126 -195 39 -59 92 -143 120 -187 49
-80 151 -239 250 -390 29 -44 72 -111 97 -150 25 -38 85 -132 134 -208 49 -76
116 -182 149 -235 101 -162 289 -442 297 -442 5 0 33 17 64 37 35 23 53 41 50
50 -3 8 -40 66 -82 130 -42 64 -81 127 -87 140 -5 13 -14 23 -19 23 -4 0 -8 7
-8 15 0 8 -4 15 -10 15 -5 0 -10 7 -10 15 0 8 -4 15 -10 15 -5 0 -10 4 -10 10
0 8 -197 318 -414 650 -45 69 -106 163 -135 210 -29 47 -74 119 -101 160 -60
92 -197 308 -213 335 -7 10 -17 25 -24 32 -13 14 -113 173 -128 203 -5 11 -13
20 -17 20 -5 0 -8 7 -8 15 0 8 -4 15 -10 15 -5 0 -10 6 -10 13 0 8 -9 22 -20
32 -25 22 -25 22 2 81 12 27 23 51 23 54 1 3 15 34 32 70 17 36 49 104 71 151
35 76 52 101 72 105 3 0 14 4 25 9 11 4 58 22 105 40 47 18 144 61 215 96 72
34 133 62 138 61 4 -1 7 3 7 10 0 6 3 9 6 5 3 -3 11 -2 18 4 6 5 69 45 139 89
119 74 211 141 229 165 4 6 8 7 8 3 0 -9 41 24 87 70 18 18 33 31 33 28 0 -4
162 158 205 205 17 19 46 54 65 79 19 25 38 47 41 50 23 21 87 125 82 134 -3
6 -3 8 2 4 23 -21 188 289 260 487 49 135 58 165 59 202 1 11 4 19 9 16 4 -2
7 2 8 9 1 13 2 18 13 66 3 12 8 32 11 45 18 83 19 88 30 157 4 25 9 53 11 63
26 142 26 702 -1 867 -2 14 -6 43 -10 65 -3 23 -8 52 -10 65 -3 14 -8 39 -11
55 -36 200 -125 458 -231 670 -54 110 -212 356 -274 429 -98 115 -226 246
-300 308 -83 68 -94 78 -104 86 -27 22 -180 125 -254 172 -138 86 -506 263
-553 265 -3 0 -10 3 -14 8 -4 4 -16 7 -26 7 -10 0 -18 6 -19 13 -5 80 -67 164
-142 191 -53 19 -120 26 -141 14z" />
        <path d="M7343 14859 c-59 -11 -118 -43 -147 -82 -95 -125 -67 -274 68 -358
l38 -25 1 -1734 0 -1734 46 -50 c25 -28 55 -60 66 -71 11 -12 56 -61 100 -110
44 -49 94 -103 110 -121 17 -17 55 -60 85 -94 30 -34 64 -72 75 -85 11 -12 47
-53 80 -91 33 -38 72 -81 86 -95 l26 -27 891 0 892 1 19 -24 c20 -25 29 -36
228 -246 l124 -133 225 2 c126 1 228 -3 233 -8 5 -5 73 -106 151 -224 79 -118
147 -216 151 -218 5 -2 9 -8 9 -13 0 -9 80 -133 309 -479 42 -64 81 -123 86
-132 6 -9 80 -121 166 -249 275 -411 419 -631 419 -641 0 -5 -7 -23 -16 -39
-36 -71 -37 -164 -2 -235 26 -53 102 -119 125 -110 8 3 12 2 9 -3 -14 -22 135
-26 177 -5 15 8 27 11 27 7 0 -4 24 17 53 47 32 34 57 71 65 96 49 166 -72
325 -249 326 l-58 1 -53 81 c-29 45 -56 83 -60 84 -5 2 -8 8 -8 13 0 4 -71
115 -158 246 -88 131 -181 272 -207 313 -27 41 -162 246 -300 455 -138 209
-294 445 -345 525 -52 80 -98 147 -102 148 -5 2 -8 7 -8 11 0 5 -22 42 -49 82
l-49 74 -238 -1 -239 -2 -63 65 c-124 129 -181 197 -175 206 3 6 1 7 -4 4 -6
-4 -27 12 -46 36 -19 23 -45 53 -56 67 l-22 24 -895 1 -896 0 -18 25 c-24 33
-33 43 -215 244 -5 6 -30 34 -54 61 -77 87 -195 217 -235 259 -21 23 -44 50
-51 61 -10 16 -13 372 -13 1718 l0 1698 39 19 c163 84 163 326 -1 410 -54 28
-101 37 -147 29z m4798 -7119 c23 -13 42 -47 44 -80 2 -29 -21 -80 -36 -80 -6
0 -8 -4 -5 -8 6 -10 -11 -13 -69 -15 -53 -2 -85 26 -92 81 -6 45 16 94 51 111
23 11 77 6 107 -9z" />
        <path d="M9620 14845 c0 -7 -190 -10 -551 -9 -624 1 -585 6 -577 -78 3 -27 11
-55 17 -61 9 -9 271 -12 1094 -13 962 -1 1221 -5 1307 -19 14 -2 50 -6 80 -9
30 -4 67 -9 83 -11 71 -13 143 -26 167 -31 8 -1 56 -15 105 -30 50 -14 95 -27
100 -29 6 -1 19 -5 30 -9 396 -144 643 -292 876 -525 126 -127 168 -178 242
-292 105 -164 217 -414 252 -564 1 -5 5 -21 8 -35 4 -14 9 -36 11 -50 3 -14
11 -58 19 -98 11 -55 12 -75 3 -82 -97 -77 -128 -129 -128 -215 -1 -132 124
-245 254 -232 79 8 85 10 132 49 52 44 78 95 84 165 8 100 -49 197 -136 230
-26 10 -48 23 -48 28 -1 6 -5 30 -8 55 -9 63 -17 104 -35 180 -7 25 -14 53
-16 64 -7 29 -53 169 -66 202 -7 16 -13 31 -14 34 -36 105 -211 416 -268 475
-7 7 -25 29 -42 50 -68 88 -154 177 -240 250 -32 28 -64 56 -71 63 -7 6 -17
12 -22 12 -6 0 -12 4 -14 9 -8 22 -352 231 -379 231 -5 0 -9 5 -9 12 0 6 -3 9
-6 6 -3 -3 -38 9 -77 27 -40 18 -97 41 -127 51 -30 10 -58 23 -62 29 -4 5 -8
7 -8 3 0 -6 -82 17 -140 39 -21 8 -55 18 -95 26 -5 2 -16 6 -22 10 -7 5 -13 6
-13 3 0 -2 -15 0 -32 5 -18 5 -46 12 -63 15 -64 11 -81 14 -105 19 -14 3 -47
8 -75 11 -27 3 -61 7 -75 10 -33 5 -212 17 -277 18 -29 1 -53 6 -53 11 0 7 -3
7 -8 0 -4 -6 -182 -10 -497 -10 -315 0 -493 4 -497 10 -5 7 -8 7 -8 0z" />
        <path d="M10428 14575 c-2 -2 -17 -5 -34 -8 -70 -11 -140 -61 -177 -125 l-22
-39 -1130 1 -1130 0 -2 -785 c-2 -736 -3 -785 -20 -794 -34 -19 -121 -114
-130 -142 -44 -125 38 -280 162 -309 125 -28 248 37 290 155 17 49 13 127 -10
170 -20 39 -77 96 -116 117 l-26 13 0 710 c0 506 3 711 11 712 6 0 481 0 1055
0 852 0 1045 -2 1051 -13 36 -63 59 -89 96 -113 23 -15 46 -27 51 -27 4 0 13
-4 20 -9 20 -17 119 -7 168 17 63 30 93 60 121 118 53 114 3 265 -106 321 -28
14 -116 36 -122 30z m38 -154 c20 -2 55 -39 63 -68 10 -36 -15 -107 -35 -99
-8 3 -11 0 -8 -8 5 -13 -5 -16 -66 -16 -67 -1 -106 79 -73 148 16 33 45 50 83
46 14 -1 30 -2 36 -3z" />
        <path d="M10990 14335 c-21 -25 -21 -107 0 -122 14 -10 68 -25 170 -48 8 -2
15 -4 15 -5 0 -1 7 -3 15 -5 67 -14 213 -72 340 -133 271 -133 523 -375 667
-642 55 -102 141 -338 160 -435 4 -22 8 -42 8 -45 8 -31 22 -115 32 -190 14
-103 7 -434 -11 -525 -2 -11 -7 -40 -12 -65 -4 -25 -8 -47 -9 -50 -1 -3 -4
-18 -8 -35 -4 -16 -9 -39 -11 -50 -7 -32 -65 -193 -92 -251 -13 -29 -24 -55
-24 -57 0 -21 -146 -233 -192 -279 -10 -10 -15 -18 -10 -18 4 0 -33 -38 -81
-85 -49 -47 -93 -83 -98 -79 -5 3 -8 1 -7 -4 3 -8 -53 -55 -127 -108 -48 -33
-92 -54 -100 -46 -5 4 -5 2 -2 -4 10 -18 -322 -172 -413 -190 -42 -9 -50 -22
-44 -72 10 -85 31 -96 120 -62 16 6 30 11 31 11 21 -4 333 134 344 151 3 5 8
8 10 7 6 -4 139 76 195 118 102 76 220 186 315 293 89 101 221 335 270 480 12
36 26 71 32 78 5 6 7 12 4 12 -3 0 0 15 8 33 17 42 45 182 62 312 15 124 7
524 -13 616 -3 13 -7 36 -9 50 -10 69 -51 224 -83 314 -76 215 -225 461 -374
616 -59 61 -207 183 -280 231 -27 17 -48 36 -48 41 0 6 -3 8 -6 5 -3 -4 -31 8
-62 26 -31 17 -82 42 -112 56 -30 14 -58 29 -61 33 -3 5 -8 8 -10 7 -9 -6
-107 35 -103 42 3 4 -1 5 -9 2 -8 -3 -38 5 -68 16 -30 12 -55 21 -56 21 -2 -1
-4 -1 -5 0 -2 0 -10 2 -18 4 -8 1 -35 8 -60 15 -120 32 -162 36 -180 15z" />
        <path d="M10157 13993 c-2 -1 -381 -3 -843 -3 l-840 0 0 -1480 0 -1480 105 -1
c399 -4 1970 1 2040 6 130 9 198 17 261 31 35 7 66 13 94 18 45 8 179 48 222
67 24 10 46 18 49 18 3 1 18 7 34 15 16 9 31 12 35 9 3 -4 6 -1 6 6 0 7 5 9
10 6 6 -3 10 -1 10 5 0 6 5 8 10 5 6 -3 10 -1 10 5 0 6 5 8 10 5 6 -3 10 -1
10 4 0 6 5 11 11 11 6 0 24 9 40 21 16 11 29 17 29 12 0 -4 4 -3 8 2 4 6 34
28 67 50 82 55 260 230 250 246 -5 7 -4 10 2 6 16 -10 100 113 147 215 63 135
104 259 121 368 4 25 9 54 11 65 24 122 24 385 -1 543 -19 120 -26 155 -36
175 -5 9 -7 17 -5 17 11 0 -67 207 -109 290 -85 169 -205 313 -352 424 -86 64
-236 148 -328 184 -27 10 -59 22 -70 27 -11 4 -24 9 -30 10 -5 2 -46 13 -90
24 -91 24 -134 33 -240 47 -27 3 -59 8 -70 11 -11 2 -132 7 -270 9 -137 3
-262 6 -278 8 -15 1 -29 1 -30 -1z m-807 -192 c649 0 771 -1 782 -7 6 -4 9 -3
6 2 -4 5 30 9 77 9 46 0 81 -3 78 -7 -2 -5 7 -4 21 2 14 5 26 6 26 2 0 -4 78
-7 173 -7 211 -1 262 -7 431 -49 203 -51 388 -133 511 -227 62 -47 184 -180
230 -250 61 -92 134 -252 150 -329 2 -8 4 -15 5 -15 3 0 18 -68 26 -114 3 -18
8 -43 10 -55 25 -118 24 -383 -2 -544 -13 -78 -31 -139 -65 -227 -7 -16 -13
-32 -13 -35 -1 -3 -20 -43 -42 -90 -43 -88 -120 -199 -157 -225 -12 -8 -18
-15 -13 -15 10 0 -15 -24 -95 -90 -72 -61 -107 -82 -121 -74 -7 4 -8 3 -4 -4
7 -12 -87 -63 -187 -103 -28 -12 -63 -26 -77 -32 -31 -12 -32 -13 -110 -32 -8
-2 -15 -4 -15 -5 0 -2 -16 -5 -60 -14 -16 -3 -40 -8 -51 -10 -76 -15 -145 -24
-259 -31 -97 -7 -1935 -11 -1936 -5 -1 3 -2 584 -3 1292 l-1 1287 50 3 c27 2
129 2 225 1 96 -2 281 -2 410 -2z" />
        <path d="M14060 12677 c-34 -7 -55 -21 -95 -61 -58 -60 -74 -103 -71 -185 3
-84 49 -153 133 -198 24 -13 31 -22 28 -38 -3 -11 -8 -42 -11 -70 -12 -113
-17 -151 -29 -205 -3 -14 -7 -43 -10 -65 -2 -22 -7 -51 -10 -65 -3 -14 -8 -38
-11 -54 -2 -16 -6 -32 -8 -35 -2 -3 -7 -22 -10 -41 -9 -58 -13 -71 -46 -175
-53 -165 -131 -356 -143 -348 -6 3 -7 1 -3 -5 7 -11 -55 -136 -111 -224 -12
-21 -23 -40 -23 -43 0 -5 -65 -98 -85 -122 -5 -7 -16 -19 -23 -28 -7 -8 -10
-15 -7 -15 3 0 -8 -14 -25 -31 -16 -18 -30 -36 -30 -41 0 -5 -5 -6 -12 -2 -6
4 -8 3 -5 -3 8 -13 -47 -75 -58 -65 -5 4 -5 1 -1 -5 4 -8 -36 -56 -109 -128
-63 -64 -115 -113 -115 -109 0 4 -8 -2 -18 -13 -9 -11 -40 -37 -67 -58 -28
-21 -52 -41 -55 -45 -3 -4 -29 -22 -57 -42 -29 -19 -51 -38 -48 -41 3 -4 2 -5
-2 -2 -3 3 -28 -11 -54 -30 -27 -19 -99 -62 -161 -94 l-113 -60 -34 29 c-40
34 -115 54 -172 46 -41 -6 -129 -53 -129 -69 0 -5 -5 -5 -10 -2 -6 4 -9 3 -8
-2 1 -4 -8 -28 -21 -52 -57 -108 -17 -247 88 -309 36 -21 58 -26 106 -26 78 1
105 6 105 18 0 5 3 7 6 3 3 -3 11 -2 18 4 6 5 23 18 38 29 30 23 68 94 74 142
3 18 7 38 9 44 2 7 46 34 97 61 84 44 285 171 314 197 7 6 24 20 40 31 36 26
97 77 106 90 4 5 8 7 8 3 0 -3 17 10 38 30 20 20 36 40 34 45 -1 5 1 6 6 3 11
-6 120 98 209 199 82 93 185 225 176 225 -4 0 0 6 9 13 24 18 120 180 186 314
50 101 136 297 137 313 1 3 9 30 19 60 19 59 23 71 25 82 1 4 9 27 17 50 9 24
18 54 20 68 3 14 10 43 16 65 5 22 12 51 14 65 3 14 9 48 14 75 10 52 15 87
25 170 4 28 8 61 10 75 2 14 7 65 10 115 6 83 17 111 37 99 4 -3 8 0 8 5 0 6
5 11 11 11 15 0 69 59 82 90 26 64 28 160 3 208 -33 64 -123 134 -158 124 -5
-1 -8 1 -8 6 0 10 -56 9 -110 -1z" />
        <path d="M7927 12103 c-52 -15 -114 -69 -142 -124 -10 -18 -18 -55 -20 -83 -5
-101 39 -184 124 -237 l46 -29 -1 -340 -2 -340 87 -89 c47 -49 120 -124 161
-167 l75 -79 777 2 777 2 11 -34 c14 -42 85 -109 133 -124 102 -34 195 -14
267 58 99 99 97 252 -5 354 -109 109 -314 76 -385 -63 -10 -21 -27 -39 -37
-42 -32 -7 -369 -2 -383 7 -8 5 -11 4 -6 -3 7 -12 -32 -11 -51 1 -6 4 -15 3
-18 -3 -5 -8 -12 -7 -23 2 -9 7 -13 9 -10 3 7 -12 -372 -13 -392 0 -7 5 -11 4
-8 -1 8 -12 -392 -11 -411 0 -9 6 -12 5 -8 0 3 -6 -27 -10 -78 -9 l-83 1 -118
123 -119 124 -1 308 -1 309 46 27 c78 45 122 113 126 197 10 176 -153 300
-328 249z m134 -142 c48 -24 63 -89 32 -142 -37 -62 -136 -60 -169 2 -29 56
-14 107 39 140 34 20 56 20 98 0z m2057 -1201 c61 -61 25 -162 -61 -169 -47
-3 -84 19 -102 62 -23 55 -1 107 58 132 38 16 72 8 105 -25z" />
        <path d="M12846 12038 c5 -7 -9 -12 -27 -10 -15 2 -79 -68 -100 -108 -41 -79
-30 -207 24 -265 10 -11 22 -27 27 -35 10 -19 -29 -122 -43 -113 -6 3 -7 1 -3
-5 9 -15 -88 -195 -99 -185 -4 5 -5 3 -1 -4 14 -26 -209 -315 -229 -295 -3 4
-5 2 -3 -3 7 -24 -161 -169 -312 -268 -63 -42 -119 -80 -125 -85 -5 -4 -13 -9
-18 -10 -4 -1 -31 -14 -60 -29 -28 -15 -55 -26 -59 -25 -5 1 -8 -3 -8 -9 0 -5
-4 -7 -10 -4 -5 3 -10 1 -10 -5 0 -6 -4 -9 -9 -5 -5 3 -16 -2 -25 -10 -8 -9
-19 -16 -23 -17 -10 -1 -24 -6 -98 -33 -110 -41 -150 -54 -177 -59 -15 -2 -31
-7 -36 -10 -11 -7 -62 -18 -89 -19 -13 -1 -23 -4 -23 -7 0 -4 -6 -7 -12 -8 -7
0 -24 -3 -38 -6 -59 -15 -111 -14 -123 0 -36 45 -84 84 -109 89 -15 4 -28 10
-28 15 0 4 -35 7 -77 6 -76 -2 -153 -27 -153 -49 0 -5 -8 -6 -17 -3 -10 4 -14
4 -10 0 4 -4 -3 -21 -16 -38 -78 -106 -62 -246 38 -333 86 -76 199 -86 289
-26 23 15 46 26 51 24 6 -1 7 1 3 4 -4 4 3 22 16 39 13 17 30 48 37 69 9 26
19 37 34 38 11 0 27 2 35 4 8 2 31 6 50 10 19 3 62 13 95 22 33 8 69 17 80 19
12 2 48 13 80 24 33 11 60 20 60 19 0 -2 50 17 110 40 114 45 260 115 327 157
21 13 38 22 38 19 0 -3 6 -1 13 5 6 6 46 33 87 60 130 84 324 254 428 375 78
91 189 268 263 420 40 83 73 153 72 156 -1 4 13 3 32 -1 21 -5 38 -3 44 3 6 6
11 7 11 3 0 -5 11 -1 25 8 14 9 25 14 25 11 0 -11 44 33 70 71 80 115 41 283
-82 353 -46 27 -59 29 -134 28 -45 -1 -80 -5 -78 -9z m167 -159 c15 -16 21
-36 22 -69 0 -54 -15 -77 -63 -97 -110 -46 -189 115 -89 178 41 26 100 20 130
-12z m-2017 -1533 c24 -24 34 -43 34 -66 0 -63 -59 -112 -125 -103 -35 5 -52
17 -71 54 -22 43 -17 77 15 109 16 16 27 31 25 33 -2 2 17 4 42 6 40 2 49 -2
80 -33z" />
        <path d="M9417 10045 c-55 -19 -100 -57 -122 -104 l-20 -42 -714 2 -714 2 -30
-36 c-52 -65 -84 -96 -92 -89 -5 4 -5 2 -2 -4 7 -12 -36 -66 -47 -59 -3 3 -4
2 -1 -2 5 -6 -59 -91 -80 -105 -5 -4 -7 -8 -3 -8 7 0 -11 -24 -47 -64 -17 -18
-119 -139 -128 -151 -4 -5 -19 -23 -33 -40 -14 -16 -37 -45 -52 -64 l-27 -34
-1 -1210 c-1 -1175 -1 -1210 -19 -1224 -11 -7 -26 -11 -34 -8 -9 3 -13 4 -10
1 3 -3 -15 -27 -41 -54 -56 -58 -75 -116 -67 -199 10 -93 87 -190 167 -209 32
-8 128 -8 159 -1 59 15 115 66 148 135 57 121 4 273 -113 325 l-41 19 2 1181
c1 650 3 1185 4 1189 0 4 7 13 14 20 33 36 177 209 287 348 68 85 131 163 140
172 15 16 61 18 651 18 349 0 655 0 681 0 43 0 49 -3 63 -30 21 -40 68 -84
112 -105 35 -17 108 -23 148 -12 11 3 26 7 34 9 8 1 24 11 35 20 58 47 67 58
60 69 -4 7 -3 9 2 6 18 -10 40 48 43 110 4 98 -39 176 -120 219 -42 22 -141
27 -192 9z m-1991 -3373 c95 -40 65 -182 -40 -188 -58 -3 -95 26 -102 81 -6
50 12 85 54 107 37 18 44 18 88 0z" />
        <path d="M7946 9472 c-15 -3 -17 -29 -15 -320 0 -174 0 -322 0 -328 -1 -6 -15
-17 -32 -25 -78 -32 -124 -111 -124 -214 0 -58 5 -78 27 -115 28 -48 67 -82
106 -94 12 -4 22 -13 22 -19 1 -17 1 -1970 1 -1983 -1 -6 -15 -18 -33 -25 -40
-16 -90 -64 -113 -109 -22 -41 -28 -131 -13 -189 12 -47 80 -124 125 -143 51
-20 57 -22 118 -22 106 0 210 75 234 170 32 125 -14 236 -118 288 l-47 24 1
997 0 997 31 13 c113 47 160 186 106 316 -13 32 -69 89 -108 110 l-30 16 1
254 0 254 1140 0 1140 0 60 -95 c34 -52 95 -147 137 -210 115 -175 230 -353
242 -375 12 -20 114 -177 235 -360 36 -55 68 -104 70 -110 4 -10 69 -110 229
-355 95 -145 138 -211 267 -410 38 -58 110 -168 160 -245 51 -77 118 -180 150
-230 89 -138 143 -222 200 -310 137 -210 185 -286 185 -293 0 -5 -9 -28 -21
-52 -35 -73 -23 -179 28 -235 42 -48 149 -97 193 -90 8 2 29 5 46 8 63 10 128
59 160 121 26 48 27 155 3 200 -47 88 -127 137 -227 140 l-54 1 -69 105 c-37
58 -87 137 -110 175 -40 68 -269 415 -279 425 -3 3 -48 73 -100 155 -51 83
-108 171 -127 196 -18 26 -33 52 -33 58 0 6 -4 11 -10 11 -5 0 -10 6 -10 14 0
8 -4 16 -9 18 -5 2 -48 66 -97 143 -48 77 -151 237 -229 355 -155 235 -375
576 -415 640 -14 22 -68 106 -120 185 -52 79 -148 227 -212 327 -64 101 -122
189 -128 196 -6 6 -8 12 -5 12 4 0 -1 8 -11 17 -16 16 -96 18 -1259 18 -683 0
-1249 -1 -1259 -3z m136 -3270 c39 -40 42 -102 5 -142 -25 -29 -38 -33 -89
-33 -103 0 -123 157 -25 198 41 17 76 10 109 -23z" />
        <path d="M12675 8794 c-25 -13 -56 -35 -69 -49 -13 -13 -27 -21 -31 -17 -5 4
-5 2 -2 -4 4 -6 -1 -27 -10 -45 -10 -20 -18 -63 -20 -101 -2 -55 3 -76 23
-115 49 -95 134 -144 242 -137 29 1 52 -2 52 -7 0 -5 51 -87 113 -182 62 -95
135 -207 163 -249 142 -223 246 -383 306 -471 l66 -99 -20 -40 c-31 -59 -29
-140 6 -209 44 -86 124 -130 224 -124 112 7 200 98 215 220 5 36 -19 122 -39
142 -8 8 -14 17 -14 21 0 4 -23 23 -51 42 -43 29 -60 35 -117 37 -37 1 -70 2
-74 3 -8 0 -103 143 -247 368 -40 62 -69 117 -65 124 4 6 3 8 -3 5 -6 -4 -33
28 -60 71 -28 42 -68 104 -89 137 -21 33 -41 65 -44 70 -3 6 -19 31 -36 55
-17 25 -50 75 -73 113 l-41 67 23 38 c52 82 26 225 -52 294 -20 18 -35 35 -34
39 1 4 -7 5 -17 2 -11 -3 -20 -1 -20 4 0 11 -4 12 -92 17 -57 4 -75 1 -113
-20z m162 -135 c26 -14 54 -69 50 -98 -3 -19 -57 -103 -57 -89 0 4 -10 4 -23
-1 -46 -18 -111 30 -122 89 -7 34 22 86 57 103 33 16 59 15 95 -4z" />
        <path d="M13023 7053 c4 -8 12 -91 22 -228 3 -33 7 -94 10 -135 3 -41 8 -111
10 -155 3 -44 7 -109 10 -145 8 -92 15 -188 30 -420 3 -41 7 -93 9 -115 4 -37
10 -118 21 -275 7 -107 15 -203 20 -240 2 -19 7 -84 10 -145 4 -60 8 -125 10
-145 2 -19 6 -84 10 -145 4 -60 9 -130 10 -155 9 -126 18 -280 19 -317 0 -24
4 -43 9 -43 13 0 272 271 269 281 -1 5 2 8 7 7 5 -2 56 45 114 105 57 59 103
107 102 107 -1 0 26 29 62 65 35 36 68 65 73 65 4 0 11 -7 14 -16 4 -9 77
-136 162 -283 86 -146 177 -302 203 -346 175 -302 238 -400 257 -397 10 2 22
9 26 15 4 7 8 8 8 2 0 -6 3 -6 8 0 9 13 199 126 208 124 4 0 10 3 13 8 3 5 35
26 71 47 85 51 143 89 151 100 7 10 2 20 -136 261 -82 143 -123 213 -268 460
-23 39 -50 86 -61 105 -10 19 -43 77 -72 128 -30 52 -54 98 -54 103 0 5 8 9
18 10 9 0 24 2 32 4 30 7 66 15 90 20 53 10 72 14 88 19 9 3 28 7 42 10 14 3
35 7 48 10 12 4 30 8 40 10 9 2 37 9 62 16 25 7 56 14 69 17 14 2 28 6 31 8 4
2 20 7 36 9 50 10 68 14 109 24 40 11 73 18 130 28 55 11 61 19 27 44 -17 13
-28 28 -25 33 3 6 1 7 -5 3 -11 -7 -132 69 -140 87 -2 4 -10 7 -17 7 -7 0 -15
4 -17 8 -3 8 -84 66 -201 145 -32 22 -54 43 -51 49 4 7 2 8 -4 4 -12 -7 -260
158 -557 369 -33 23 -207 144 -327 228 -299 207 -395 274 -543 374 -88 59
-161 111 -163 115 -2 5 -8 8 -14 8 -5 0 -16 6 -23 13 -33 29 -45 37 -45 32 0
-4 -7 1 -16 9 -16 16 -39 22 -31 9z" />
    </g>
</svg>
